G04 #@! TF.GenerationSoftware,KiCad,Pcbnew,(5.1.4)-1*
G04 #@! TF.CreationDate,2019-11-16T17:38:58+00:00*
G04 #@! TF.ProjectId,io-breakout,696f2d62-7265-4616-9b6f-75742e6b6963,rev?*
G04 #@! TF.SameCoordinates,Original*
G04 #@! TF.FileFunction,Copper,L2,Bot*
G04 #@! TF.FilePolarity,Positive*
%FSLAX46Y46*%
G04 Gerber Fmt 4.6, Leading zero omitted, Abs format (unit mm)*
G04 Created by KiCad (PCBNEW (5.1.4)-1) date 2019-11-16 17:38:58*
%MOMM*%
%LPD*%
G04 APERTURE LIST*
%ADD10O,1.700000X1.700000*%
%ADD11R,1.700000X1.700000*%
%ADD12C,0.800000*%
%ADD13C,0.150000*%
G04 APERTURE END LIST*
D10*
X104140000Y-53340000D03*
X106680000Y-53340000D03*
X109220000Y-53340000D03*
X111760000Y-53340000D03*
X114300000Y-53340000D03*
X116840000Y-53340000D03*
X119380000Y-53340000D03*
X121920000Y-53340000D03*
X124460000Y-53340000D03*
X127000000Y-53340000D03*
X129540000Y-53340000D03*
X132080000Y-53340000D03*
X134620000Y-53340000D03*
X137160000Y-53340000D03*
X139700000Y-53340000D03*
X142240000Y-53340000D03*
X144780000Y-53340000D03*
X147320000Y-53340000D03*
X149860000Y-53340000D03*
X152400000Y-53340000D03*
X154940000Y-53340000D03*
X157480000Y-53340000D03*
X160020000Y-53340000D03*
X162560000Y-53340000D03*
X165100000Y-53340000D03*
X167640000Y-53340000D03*
X170180000Y-53340000D03*
D11*
X172720000Y-53340000D03*
D10*
X172720000Y-68580000D03*
X170180000Y-68580000D03*
X167640000Y-68580000D03*
X165100000Y-68580000D03*
X162560000Y-68580000D03*
X160020000Y-68580000D03*
X157480000Y-68580000D03*
X154940000Y-68580000D03*
X152400000Y-68580000D03*
X149860000Y-68580000D03*
X147320000Y-68580000D03*
X144780000Y-68580000D03*
X142240000Y-68580000D03*
X139700000Y-68580000D03*
X137160000Y-68580000D03*
X134620000Y-68580000D03*
X132080000Y-68580000D03*
X129540000Y-68580000D03*
X127000000Y-68580000D03*
X124460000Y-68580000D03*
X121920000Y-68580000D03*
X119380000Y-68580000D03*
X116840000Y-68580000D03*
X114300000Y-68580000D03*
X111760000Y-68580000D03*
X109220000Y-68580000D03*
X106680000Y-68580000D03*
D11*
X104140000Y-68580000D03*
D12*
X162559992Y-63500008D03*
X159258000Y-62738012D03*
X156210000Y-62113012D03*
X152908000Y-61468000D03*
X123952000Y-61468000D03*
X120650000Y-62113012D03*
X117602000Y-62738012D03*
X114300008Y-63500008D03*
X114300008Y-58419992D03*
X117602000Y-59181988D03*
X120650000Y-59806988D03*
X123952000Y-60452000D03*
X152908000Y-60452000D03*
X156210000Y-59806988D03*
X159258000Y-59181988D03*
X162559992Y-58419992D03*
D13*
X167640000Y-68580000D02*
X162560000Y-63500000D01*
X165100000Y-68580000D02*
X159258012Y-62738012D01*
X156210000Y-62113012D02*
X162560000Y-68463012D01*
X160020000Y-68580000D02*
X152908000Y-61468000D01*
X116840000Y-68580000D02*
X123952000Y-61468000D01*
X114300000Y-68463012D02*
X114300000Y-68580000D01*
X120650000Y-62113012D02*
X114300000Y-68463012D01*
X117601988Y-62738012D02*
X117602000Y-62738012D01*
X111760000Y-68580000D02*
X117601988Y-62738012D01*
X109220000Y-68580000D02*
X114300000Y-63500000D01*
X114300000Y-63500000D02*
X114300008Y-63500008D01*
X109220000Y-53340000D02*
X114300000Y-58420000D01*
X111760000Y-53340000D02*
X117601988Y-59181988D01*
X120650000Y-59806988D02*
X114300000Y-53456988D01*
X116840000Y-53340000D02*
X123952000Y-60452000D01*
X160020000Y-53340000D02*
X152908000Y-60452000D01*
X162560000Y-53456988D02*
X162560000Y-53340000D01*
X156210000Y-59806988D02*
X162560000Y-53456988D01*
X159258012Y-59181988D02*
X159258000Y-59181988D01*
X165100000Y-53340000D02*
X159258012Y-59181988D01*
X167640000Y-53340000D02*
X162560000Y-58420000D01*
X162560000Y-58420000D02*
X162559992Y-58419992D01*
M02*
