M48
; DRILL file {KiCad (5.1.4)-1} date 16/11/2019 17:39:22
; FORMAT={-:-/ absolute / inch / decimal}
; #@! TF.CreationDate,2019-11-16T17:39:22+00:00
; #@! TF.GenerationSoftware,Kicad,Pcbnew,(5.1.4)-1
FMAT,2
INCH
T1C0.0157
T2C0.0394
%
G90
G05
T1
X4.5Y-2.3
X4.5Y-2.5
X4.63Y-2.33
X4.63Y-2.47
X4.75Y-2.3546
X4.75Y-2.4454
X4.88Y-2.38
X4.88Y-2.42
X6.02Y-2.38
X6.02Y-2.42
X6.15Y-2.3546
X6.15Y-2.4454
X6.27Y-2.33
X6.27Y-2.47
X6.4Y-2.3
X6.4Y-2.5
T2
X4.1Y-2.7
X4.2Y-2.7
X4.3Y-2.7
X4.4Y-2.7
X4.5Y-2.7
X4.6Y-2.7
X4.7Y-2.7
X4.8Y-2.7
X4.9Y-2.7
X5.0Y-2.7
X5.1Y-2.7
X5.2Y-2.7
X5.3Y-2.7
X5.4Y-2.7
X5.5Y-2.7
X5.6Y-2.7
X5.7Y-2.7
X5.8Y-2.7
X5.9Y-2.7
X6.0Y-2.7
X6.1Y-2.7
X6.2Y-2.7
X6.3Y-2.7
X6.4Y-2.7
X6.5Y-2.7
X6.6Y-2.7
X6.7Y-2.7
X6.8Y-2.7
X4.1Y-2.1
X4.2Y-2.1
X4.3Y-2.1
X4.4Y-2.1
X4.5Y-2.1
X4.6Y-2.1
X4.7Y-2.1
X4.8Y-2.1
X4.9Y-2.1
X5.0Y-2.1
X5.1Y-2.1
X5.2Y-2.1
X5.3Y-2.1
X5.4Y-2.1
X5.5Y-2.1
X5.6Y-2.1
X5.7Y-2.1
X5.8Y-2.1
X5.9Y-2.1
X6.0Y-2.1
X6.1Y-2.1
X6.2Y-2.1
X6.3Y-2.1
X6.4Y-2.1
X6.5Y-2.1
X6.6Y-2.1
X6.7Y-2.1
X6.8Y-2.1
T0
M30
