G04 #@! TF.GenerationSoftware,KiCad,Pcbnew,(5.1.4)-1*
G04 #@! TF.CreationDate,2019-11-16T17:38:58+00:00*
G04 #@! TF.ProjectId,io-breakout,696f2d62-7265-4616-9b6f-75742e6b6963,rev?*
G04 #@! TF.SameCoordinates,Original*
G04 #@! TF.FileFunction,Soldermask,Bot*
G04 #@! TF.FilePolarity,Negative*
%FSLAX46Y46*%
G04 Gerber Fmt 4.6, Leading zero omitted, Abs format (unit mm)*
G04 Created by KiCad (PCBNEW (5.1.4)-1) date 2019-11-16 17:38:58*
%MOMM*%
%LPD*%
G04 APERTURE LIST*
%ADD10C,0.100000*%
G04 APERTURE END LIST*
D10*
G36*
X172830443Y-67685519D02*
G01*
X172896627Y-67692037D01*
X173066466Y-67743557D01*
X173222991Y-67827222D01*
X173258729Y-67856552D01*
X173360186Y-67939814D01*
X173443448Y-68041271D01*
X173472778Y-68077009D01*
X173556443Y-68233534D01*
X173607963Y-68403373D01*
X173625359Y-68580000D01*
X173607963Y-68756627D01*
X173556443Y-68926466D01*
X173472778Y-69082991D01*
X173443448Y-69118729D01*
X173360186Y-69220186D01*
X173258729Y-69303448D01*
X173222991Y-69332778D01*
X173066466Y-69416443D01*
X172896627Y-69467963D01*
X172830442Y-69474482D01*
X172764260Y-69481000D01*
X172675740Y-69481000D01*
X172609558Y-69474482D01*
X172543373Y-69467963D01*
X172373534Y-69416443D01*
X172217009Y-69332778D01*
X172181271Y-69303448D01*
X172079814Y-69220186D01*
X171996552Y-69118729D01*
X171967222Y-69082991D01*
X171883557Y-68926466D01*
X171832037Y-68756627D01*
X171814641Y-68580000D01*
X171832037Y-68403373D01*
X171883557Y-68233534D01*
X171967222Y-68077009D01*
X171996552Y-68041271D01*
X172079814Y-67939814D01*
X172181271Y-67856552D01*
X172217009Y-67827222D01*
X172373534Y-67743557D01*
X172543373Y-67692037D01*
X172609557Y-67685519D01*
X172675740Y-67679000D01*
X172764260Y-67679000D01*
X172830443Y-67685519D01*
X172830443Y-67685519D01*
G37*
G36*
X137270443Y-67685519D02*
G01*
X137336627Y-67692037D01*
X137506466Y-67743557D01*
X137662991Y-67827222D01*
X137698729Y-67856552D01*
X137800186Y-67939814D01*
X137883448Y-68041271D01*
X137912778Y-68077009D01*
X137996443Y-68233534D01*
X138047963Y-68403373D01*
X138065359Y-68580000D01*
X138047963Y-68756627D01*
X137996443Y-68926466D01*
X137912778Y-69082991D01*
X137883448Y-69118729D01*
X137800186Y-69220186D01*
X137698729Y-69303448D01*
X137662991Y-69332778D01*
X137506466Y-69416443D01*
X137336627Y-69467963D01*
X137270442Y-69474482D01*
X137204260Y-69481000D01*
X137115740Y-69481000D01*
X137049558Y-69474482D01*
X136983373Y-69467963D01*
X136813534Y-69416443D01*
X136657009Y-69332778D01*
X136621271Y-69303448D01*
X136519814Y-69220186D01*
X136436552Y-69118729D01*
X136407222Y-69082991D01*
X136323557Y-68926466D01*
X136272037Y-68756627D01*
X136254641Y-68580000D01*
X136272037Y-68403373D01*
X136323557Y-68233534D01*
X136407222Y-68077009D01*
X136436552Y-68041271D01*
X136519814Y-67939814D01*
X136621271Y-67856552D01*
X136657009Y-67827222D01*
X136813534Y-67743557D01*
X136983373Y-67692037D01*
X137049557Y-67685519D01*
X137115740Y-67679000D01*
X137204260Y-67679000D01*
X137270443Y-67685519D01*
X137270443Y-67685519D01*
G37*
G36*
X105041000Y-69481000D02*
G01*
X103239000Y-69481000D01*
X103239000Y-67679000D01*
X105041000Y-67679000D01*
X105041000Y-69481000D01*
X105041000Y-69481000D01*
G37*
G36*
X106790443Y-67685519D02*
G01*
X106856627Y-67692037D01*
X107026466Y-67743557D01*
X107182991Y-67827222D01*
X107218729Y-67856552D01*
X107320186Y-67939814D01*
X107403448Y-68041271D01*
X107432778Y-68077009D01*
X107516443Y-68233534D01*
X107567963Y-68403373D01*
X107585359Y-68580000D01*
X107567963Y-68756627D01*
X107516443Y-68926466D01*
X107432778Y-69082991D01*
X107403448Y-69118729D01*
X107320186Y-69220186D01*
X107218729Y-69303448D01*
X107182991Y-69332778D01*
X107026466Y-69416443D01*
X106856627Y-69467963D01*
X106790442Y-69474482D01*
X106724260Y-69481000D01*
X106635740Y-69481000D01*
X106569558Y-69474482D01*
X106503373Y-69467963D01*
X106333534Y-69416443D01*
X106177009Y-69332778D01*
X106141271Y-69303448D01*
X106039814Y-69220186D01*
X105956552Y-69118729D01*
X105927222Y-69082991D01*
X105843557Y-68926466D01*
X105792037Y-68756627D01*
X105774641Y-68580000D01*
X105792037Y-68403373D01*
X105843557Y-68233534D01*
X105927222Y-68077009D01*
X105956552Y-68041271D01*
X106039814Y-67939814D01*
X106141271Y-67856552D01*
X106177009Y-67827222D01*
X106333534Y-67743557D01*
X106503373Y-67692037D01*
X106569557Y-67685519D01*
X106635740Y-67679000D01*
X106724260Y-67679000D01*
X106790443Y-67685519D01*
X106790443Y-67685519D01*
G37*
G36*
X109330443Y-67685519D02*
G01*
X109396627Y-67692037D01*
X109566466Y-67743557D01*
X109722991Y-67827222D01*
X109758729Y-67856552D01*
X109860186Y-67939814D01*
X109943448Y-68041271D01*
X109972778Y-68077009D01*
X110056443Y-68233534D01*
X110107963Y-68403373D01*
X110125359Y-68580000D01*
X110107963Y-68756627D01*
X110056443Y-68926466D01*
X109972778Y-69082991D01*
X109943448Y-69118729D01*
X109860186Y-69220186D01*
X109758729Y-69303448D01*
X109722991Y-69332778D01*
X109566466Y-69416443D01*
X109396627Y-69467963D01*
X109330442Y-69474482D01*
X109264260Y-69481000D01*
X109175740Y-69481000D01*
X109109558Y-69474482D01*
X109043373Y-69467963D01*
X108873534Y-69416443D01*
X108717009Y-69332778D01*
X108681271Y-69303448D01*
X108579814Y-69220186D01*
X108496552Y-69118729D01*
X108467222Y-69082991D01*
X108383557Y-68926466D01*
X108332037Y-68756627D01*
X108314641Y-68580000D01*
X108332037Y-68403373D01*
X108383557Y-68233534D01*
X108467222Y-68077009D01*
X108496552Y-68041271D01*
X108579814Y-67939814D01*
X108681271Y-67856552D01*
X108717009Y-67827222D01*
X108873534Y-67743557D01*
X109043373Y-67692037D01*
X109109557Y-67685519D01*
X109175740Y-67679000D01*
X109264260Y-67679000D01*
X109330443Y-67685519D01*
X109330443Y-67685519D01*
G37*
G36*
X111870443Y-67685519D02*
G01*
X111936627Y-67692037D01*
X112106466Y-67743557D01*
X112262991Y-67827222D01*
X112298729Y-67856552D01*
X112400186Y-67939814D01*
X112483448Y-68041271D01*
X112512778Y-68077009D01*
X112596443Y-68233534D01*
X112647963Y-68403373D01*
X112665359Y-68580000D01*
X112647963Y-68756627D01*
X112596443Y-68926466D01*
X112512778Y-69082991D01*
X112483448Y-69118729D01*
X112400186Y-69220186D01*
X112298729Y-69303448D01*
X112262991Y-69332778D01*
X112106466Y-69416443D01*
X111936627Y-69467963D01*
X111870442Y-69474482D01*
X111804260Y-69481000D01*
X111715740Y-69481000D01*
X111649558Y-69474482D01*
X111583373Y-69467963D01*
X111413534Y-69416443D01*
X111257009Y-69332778D01*
X111221271Y-69303448D01*
X111119814Y-69220186D01*
X111036552Y-69118729D01*
X111007222Y-69082991D01*
X110923557Y-68926466D01*
X110872037Y-68756627D01*
X110854641Y-68580000D01*
X110872037Y-68403373D01*
X110923557Y-68233534D01*
X111007222Y-68077009D01*
X111036552Y-68041271D01*
X111119814Y-67939814D01*
X111221271Y-67856552D01*
X111257009Y-67827222D01*
X111413534Y-67743557D01*
X111583373Y-67692037D01*
X111649557Y-67685519D01*
X111715740Y-67679000D01*
X111804260Y-67679000D01*
X111870443Y-67685519D01*
X111870443Y-67685519D01*
G37*
G36*
X114410443Y-67685519D02*
G01*
X114476627Y-67692037D01*
X114646466Y-67743557D01*
X114802991Y-67827222D01*
X114838729Y-67856552D01*
X114940186Y-67939814D01*
X115023448Y-68041271D01*
X115052778Y-68077009D01*
X115136443Y-68233534D01*
X115187963Y-68403373D01*
X115205359Y-68580000D01*
X115187963Y-68756627D01*
X115136443Y-68926466D01*
X115052778Y-69082991D01*
X115023448Y-69118729D01*
X114940186Y-69220186D01*
X114838729Y-69303448D01*
X114802991Y-69332778D01*
X114646466Y-69416443D01*
X114476627Y-69467963D01*
X114410442Y-69474482D01*
X114344260Y-69481000D01*
X114255740Y-69481000D01*
X114189558Y-69474482D01*
X114123373Y-69467963D01*
X113953534Y-69416443D01*
X113797009Y-69332778D01*
X113761271Y-69303448D01*
X113659814Y-69220186D01*
X113576552Y-69118729D01*
X113547222Y-69082991D01*
X113463557Y-68926466D01*
X113412037Y-68756627D01*
X113394641Y-68580000D01*
X113412037Y-68403373D01*
X113463557Y-68233534D01*
X113547222Y-68077009D01*
X113576552Y-68041271D01*
X113659814Y-67939814D01*
X113761271Y-67856552D01*
X113797009Y-67827222D01*
X113953534Y-67743557D01*
X114123373Y-67692037D01*
X114189557Y-67685519D01*
X114255740Y-67679000D01*
X114344260Y-67679000D01*
X114410443Y-67685519D01*
X114410443Y-67685519D01*
G37*
G36*
X116950443Y-67685519D02*
G01*
X117016627Y-67692037D01*
X117186466Y-67743557D01*
X117342991Y-67827222D01*
X117378729Y-67856552D01*
X117480186Y-67939814D01*
X117563448Y-68041271D01*
X117592778Y-68077009D01*
X117676443Y-68233534D01*
X117727963Y-68403373D01*
X117745359Y-68580000D01*
X117727963Y-68756627D01*
X117676443Y-68926466D01*
X117592778Y-69082991D01*
X117563448Y-69118729D01*
X117480186Y-69220186D01*
X117378729Y-69303448D01*
X117342991Y-69332778D01*
X117186466Y-69416443D01*
X117016627Y-69467963D01*
X116950442Y-69474482D01*
X116884260Y-69481000D01*
X116795740Y-69481000D01*
X116729558Y-69474482D01*
X116663373Y-69467963D01*
X116493534Y-69416443D01*
X116337009Y-69332778D01*
X116301271Y-69303448D01*
X116199814Y-69220186D01*
X116116552Y-69118729D01*
X116087222Y-69082991D01*
X116003557Y-68926466D01*
X115952037Y-68756627D01*
X115934641Y-68580000D01*
X115952037Y-68403373D01*
X116003557Y-68233534D01*
X116087222Y-68077009D01*
X116116552Y-68041271D01*
X116199814Y-67939814D01*
X116301271Y-67856552D01*
X116337009Y-67827222D01*
X116493534Y-67743557D01*
X116663373Y-67692037D01*
X116729557Y-67685519D01*
X116795740Y-67679000D01*
X116884260Y-67679000D01*
X116950443Y-67685519D01*
X116950443Y-67685519D01*
G37*
G36*
X119490443Y-67685519D02*
G01*
X119556627Y-67692037D01*
X119726466Y-67743557D01*
X119882991Y-67827222D01*
X119918729Y-67856552D01*
X120020186Y-67939814D01*
X120103448Y-68041271D01*
X120132778Y-68077009D01*
X120216443Y-68233534D01*
X120267963Y-68403373D01*
X120285359Y-68580000D01*
X120267963Y-68756627D01*
X120216443Y-68926466D01*
X120132778Y-69082991D01*
X120103448Y-69118729D01*
X120020186Y-69220186D01*
X119918729Y-69303448D01*
X119882991Y-69332778D01*
X119726466Y-69416443D01*
X119556627Y-69467963D01*
X119490442Y-69474482D01*
X119424260Y-69481000D01*
X119335740Y-69481000D01*
X119269558Y-69474482D01*
X119203373Y-69467963D01*
X119033534Y-69416443D01*
X118877009Y-69332778D01*
X118841271Y-69303448D01*
X118739814Y-69220186D01*
X118656552Y-69118729D01*
X118627222Y-69082991D01*
X118543557Y-68926466D01*
X118492037Y-68756627D01*
X118474641Y-68580000D01*
X118492037Y-68403373D01*
X118543557Y-68233534D01*
X118627222Y-68077009D01*
X118656552Y-68041271D01*
X118739814Y-67939814D01*
X118841271Y-67856552D01*
X118877009Y-67827222D01*
X119033534Y-67743557D01*
X119203373Y-67692037D01*
X119269557Y-67685519D01*
X119335740Y-67679000D01*
X119424260Y-67679000D01*
X119490443Y-67685519D01*
X119490443Y-67685519D01*
G37*
G36*
X122030443Y-67685519D02*
G01*
X122096627Y-67692037D01*
X122266466Y-67743557D01*
X122422991Y-67827222D01*
X122458729Y-67856552D01*
X122560186Y-67939814D01*
X122643448Y-68041271D01*
X122672778Y-68077009D01*
X122756443Y-68233534D01*
X122807963Y-68403373D01*
X122825359Y-68580000D01*
X122807963Y-68756627D01*
X122756443Y-68926466D01*
X122672778Y-69082991D01*
X122643448Y-69118729D01*
X122560186Y-69220186D01*
X122458729Y-69303448D01*
X122422991Y-69332778D01*
X122266466Y-69416443D01*
X122096627Y-69467963D01*
X122030442Y-69474482D01*
X121964260Y-69481000D01*
X121875740Y-69481000D01*
X121809558Y-69474482D01*
X121743373Y-69467963D01*
X121573534Y-69416443D01*
X121417009Y-69332778D01*
X121381271Y-69303448D01*
X121279814Y-69220186D01*
X121196552Y-69118729D01*
X121167222Y-69082991D01*
X121083557Y-68926466D01*
X121032037Y-68756627D01*
X121014641Y-68580000D01*
X121032037Y-68403373D01*
X121083557Y-68233534D01*
X121167222Y-68077009D01*
X121196552Y-68041271D01*
X121279814Y-67939814D01*
X121381271Y-67856552D01*
X121417009Y-67827222D01*
X121573534Y-67743557D01*
X121743373Y-67692037D01*
X121809557Y-67685519D01*
X121875740Y-67679000D01*
X121964260Y-67679000D01*
X122030443Y-67685519D01*
X122030443Y-67685519D01*
G37*
G36*
X124570443Y-67685519D02*
G01*
X124636627Y-67692037D01*
X124806466Y-67743557D01*
X124962991Y-67827222D01*
X124998729Y-67856552D01*
X125100186Y-67939814D01*
X125183448Y-68041271D01*
X125212778Y-68077009D01*
X125296443Y-68233534D01*
X125347963Y-68403373D01*
X125365359Y-68580000D01*
X125347963Y-68756627D01*
X125296443Y-68926466D01*
X125212778Y-69082991D01*
X125183448Y-69118729D01*
X125100186Y-69220186D01*
X124998729Y-69303448D01*
X124962991Y-69332778D01*
X124806466Y-69416443D01*
X124636627Y-69467963D01*
X124570442Y-69474482D01*
X124504260Y-69481000D01*
X124415740Y-69481000D01*
X124349558Y-69474482D01*
X124283373Y-69467963D01*
X124113534Y-69416443D01*
X123957009Y-69332778D01*
X123921271Y-69303448D01*
X123819814Y-69220186D01*
X123736552Y-69118729D01*
X123707222Y-69082991D01*
X123623557Y-68926466D01*
X123572037Y-68756627D01*
X123554641Y-68580000D01*
X123572037Y-68403373D01*
X123623557Y-68233534D01*
X123707222Y-68077009D01*
X123736552Y-68041271D01*
X123819814Y-67939814D01*
X123921271Y-67856552D01*
X123957009Y-67827222D01*
X124113534Y-67743557D01*
X124283373Y-67692037D01*
X124349557Y-67685519D01*
X124415740Y-67679000D01*
X124504260Y-67679000D01*
X124570443Y-67685519D01*
X124570443Y-67685519D01*
G37*
G36*
X127110443Y-67685519D02*
G01*
X127176627Y-67692037D01*
X127346466Y-67743557D01*
X127502991Y-67827222D01*
X127538729Y-67856552D01*
X127640186Y-67939814D01*
X127723448Y-68041271D01*
X127752778Y-68077009D01*
X127836443Y-68233534D01*
X127887963Y-68403373D01*
X127905359Y-68580000D01*
X127887963Y-68756627D01*
X127836443Y-68926466D01*
X127752778Y-69082991D01*
X127723448Y-69118729D01*
X127640186Y-69220186D01*
X127538729Y-69303448D01*
X127502991Y-69332778D01*
X127346466Y-69416443D01*
X127176627Y-69467963D01*
X127110442Y-69474482D01*
X127044260Y-69481000D01*
X126955740Y-69481000D01*
X126889558Y-69474482D01*
X126823373Y-69467963D01*
X126653534Y-69416443D01*
X126497009Y-69332778D01*
X126461271Y-69303448D01*
X126359814Y-69220186D01*
X126276552Y-69118729D01*
X126247222Y-69082991D01*
X126163557Y-68926466D01*
X126112037Y-68756627D01*
X126094641Y-68580000D01*
X126112037Y-68403373D01*
X126163557Y-68233534D01*
X126247222Y-68077009D01*
X126276552Y-68041271D01*
X126359814Y-67939814D01*
X126461271Y-67856552D01*
X126497009Y-67827222D01*
X126653534Y-67743557D01*
X126823373Y-67692037D01*
X126889557Y-67685519D01*
X126955740Y-67679000D01*
X127044260Y-67679000D01*
X127110443Y-67685519D01*
X127110443Y-67685519D01*
G37*
G36*
X129650443Y-67685519D02*
G01*
X129716627Y-67692037D01*
X129886466Y-67743557D01*
X130042991Y-67827222D01*
X130078729Y-67856552D01*
X130180186Y-67939814D01*
X130263448Y-68041271D01*
X130292778Y-68077009D01*
X130376443Y-68233534D01*
X130427963Y-68403373D01*
X130445359Y-68580000D01*
X130427963Y-68756627D01*
X130376443Y-68926466D01*
X130292778Y-69082991D01*
X130263448Y-69118729D01*
X130180186Y-69220186D01*
X130078729Y-69303448D01*
X130042991Y-69332778D01*
X129886466Y-69416443D01*
X129716627Y-69467963D01*
X129650442Y-69474482D01*
X129584260Y-69481000D01*
X129495740Y-69481000D01*
X129429558Y-69474482D01*
X129363373Y-69467963D01*
X129193534Y-69416443D01*
X129037009Y-69332778D01*
X129001271Y-69303448D01*
X128899814Y-69220186D01*
X128816552Y-69118729D01*
X128787222Y-69082991D01*
X128703557Y-68926466D01*
X128652037Y-68756627D01*
X128634641Y-68580000D01*
X128652037Y-68403373D01*
X128703557Y-68233534D01*
X128787222Y-68077009D01*
X128816552Y-68041271D01*
X128899814Y-67939814D01*
X129001271Y-67856552D01*
X129037009Y-67827222D01*
X129193534Y-67743557D01*
X129363373Y-67692037D01*
X129429557Y-67685519D01*
X129495740Y-67679000D01*
X129584260Y-67679000D01*
X129650443Y-67685519D01*
X129650443Y-67685519D01*
G37*
G36*
X132190443Y-67685519D02*
G01*
X132256627Y-67692037D01*
X132426466Y-67743557D01*
X132582991Y-67827222D01*
X132618729Y-67856552D01*
X132720186Y-67939814D01*
X132803448Y-68041271D01*
X132832778Y-68077009D01*
X132916443Y-68233534D01*
X132967963Y-68403373D01*
X132985359Y-68580000D01*
X132967963Y-68756627D01*
X132916443Y-68926466D01*
X132832778Y-69082991D01*
X132803448Y-69118729D01*
X132720186Y-69220186D01*
X132618729Y-69303448D01*
X132582991Y-69332778D01*
X132426466Y-69416443D01*
X132256627Y-69467963D01*
X132190442Y-69474482D01*
X132124260Y-69481000D01*
X132035740Y-69481000D01*
X131969558Y-69474482D01*
X131903373Y-69467963D01*
X131733534Y-69416443D01*
X131577009Y-69332778D01*
X131541271Y-69303448D01*
X131439814Y-69220186D01*
X131356552Y-69118729D01*
X131327222Y-69082991D01*
X131243557Y-68926466D01*
X131192037Y-68756627D01*
X131174641Y-68580000D01*
X131192037Y-68403373D01*
X131243557Y-68233534D01*
X131327222Y-68077009D01*
X131356552Y-68041271D01*
X131439814Y-67939814D01*
X131541271Y-67856552D01*
X131577009Y-67827222D01*
X131733534Y-67743557D01*
X131903373Y-67692037D01*
X131969557Y-67685519D01*
X132035740Y-67679000D01*
X132124260Y-67679000D01*
X132190443Y-67685519D01*
X132190443Y-67685519D01*
G37*
G36*
X134730443Y-67685519D02*
G01*
X134796627Y-67692037D01*
X134966466Y-67743557D01*
X135122991Y-67827222D01*
X135158729Y-67856552D01*
X135260186Y-67939814D01*
X135343448Y-68041271D01*
X135372778Y-68077009D01*
X135456443Y-68233534D01*
X135507963Y-68403373D01*
X135525359Y-68580000D01*
X135507963Y-68756627D01*
X135456443Y-68926466D01*
X135372778Y-69082991D01*
X135343448Y-69118729D01*
X135260186Y-69220186D01*
X135158729Y-69303448D01*
X135122991Y-69332778D01*
X134966466Y-69416443D01*
X134796627Y-69467963D01*
X134730442Y-69474482D01*
X134664260Y-69481000D01*
X134575740Y-69481000D01*
X134509558Y-69474482D01*
X134443373Y-69467963D01*
X134273534Y-69416443D01*
X134117009Y-69332778D01*
X134081271Y-69303448D01*
X133979814Y-69220186D01*
X133896552Y-69118729D01*
X133867222Y-69082991D01*
X133783557Y-68926466D01*
X133732037Y-68756627D01*
X133714641Y-68580000D01*
X133732037Y-68403373D01*
X133783557Y-68233534D01*
X133867222Y-68077009D01*
X133896552Y-68041271D01*
X133979814Y-67939814D01*
X134081271Y-67856552D01*
X134117009Y-67827222D01*
X134273534Y-67743557D01*
X134443373Y-67692037D01*
X134509557Y-67685519D01*
X134575740Y-67679000D01*
X134664260Y-67679000D01*
X134730443Y-67685519D01*
X134730443Y-67685519D01*
G37*
G36*
X142350443Y-67685519D02*
G01*
X142416627Y-67692037D01*
X142586466Y-67743557D01*
X142742991Y-67827222D01*
X142778729Y-67856552D01*
X142880186Y-67939814D01*
X142963448Y-68041271D01*
X142992778Y-68077009D01*
X143076443Y-68233534D01*
X143127963Y-68403373D01*
X143145359Y-68580000D01*
X143127963Y-68756627D01*
X143076443Y-68926466D01*
X142992778Y-69082991D01*
X142963448Y-69118729D01*
X142880186Y-69220186D01*
X142778729Y-69303448D01*
X142742991Y-69332778D01*
X142586466Y-69416443D01*
X142416627Y-69467963D01*
X142350442Y-69474482D01*
X142284260Y-69481000D01*
X142195740Y-69481000D01*
X142129558Y-69474482D01*
X142063373Y-69467963D01*
X141893534Y-69416443D01*
X141737009Y-69332778D01*
X141701271Y-69303448D01*
X141599814Y-69220186D01*
X141516552Y-69118729D01*
X141487222Y-69082991D01*
X141403557Y-68926466D01*
X141352037Y-68756627D01*
X141334641Y-68580000D01*
X141352037Y-68403373D01*
X141403557Y-68233534D01*
X141487222Y-68077009D01*
X141516552Y-68041271D01*
X141599814Y-67939814D01*
X141701271Y-67856552D01*
X141737009Y-67827222D01*
X141893534Y-67743557D01*
X142063373Y-67692037D01*
X142129557Y-67685519D01*
X142195740Y-67679000D01*
X142284260Y-67679000D01*
X142350443Y-67685519D01*
X142350443Y-67685519D01*
G37*
G36*
X139810443Y-67685519D02*
G01*
X139876627Y-67692037D01*
X140046466Y-67743557D01*
X140202991Y-67827222D01*
X140238729Y-67856552D01*
X140340186Y-67939814D01*
X140423448Y-68041271D01*
X140452778Y-68077009D01*
X140536443Y-68233534D01*
X140587963Y-68403373D01*
X140605359Y-68580000D01*
X140587963Y-68756627D01*
X140536443Y-68926466D01*
X140452778Y-69082991D01*
X140423448Y-69118729D01*
X140340186Y-69220186D01*
X140238729Y-69303448D01*
X140202991Y-69332778D01*
X140046466Y-69416443D01*
X139876627Y-69467963D01*
X139810442Y-69474482D01*
X139744260Y-69481000D01*
X139655740Y-69481000D01*
X139589558Y-69474482D01*
X139523373Y-69467963D01*
X139353534Y-69416443D01*
X139197009Y-69332778D01*
X139161271Y-69303448D01*
X139059814Y-69220186D01*
X138976552Y-69118729D01*
X138947222Y-69082991D01*
X138863557Y-68926466D01*
X138812037Y-68756627D01*
X138794641Y-68580000D01*
X138812037Y-68403373D01*
X138863557Y-68233534D01*
X138947222Y-68077009D01*
X138976552Y-68041271D01*
X139059814Y-67939814D01*
X139161271Y-67856552D01*
X139197009Y-67827222D01*
X139353534Y-67743557D01*
X139523373Y-67692037D01*
X139589557Y-67685519D01*
X139655740Y-67679000D01*
X139744260Y-67679000D01*
X139810443Y-67685519D01*
X139810443Y-67685519D01*
G37*
G36*
X170290443Y-67685519D02*
G01*
X170356627Y-67692037D01*
X170526466Y-67743557D01*
X170682991Y-67827222D01*
X170718729Y-67856552D01*
X170820186Y-67939814D01*
X170903448Y-68041271D01*
X170932778Y-68077009D01*
X171016443Y-68233534D01*
X171067963Y-68403373D01*
X171085359Y-68580000D01*
X171067963Y-68756627D01*
X171016443Y-68926466D01*
X170932778Y-69082991D01*
X170903448Y-69118729D01*
X170820186Y-69220186D01*
X170718729Y-69303448D01*
X170682991Y-69332778D01*
X170526466Y-69416443D01*
X170356627Y-69467963D01*
X170290442Y-69474482D01*
X170224260Y-69481000D01*
X170135740Y-69481000D01*
X170069558Y-69474482D01*
X170003373Y-69467963D01*
X169833534Y-69416443D01*
X169677009Y-69332778D01*
X169641271Y-69303448D01*
X169539814Y-69220186D01*
X169456552Y-69118729D01*
X169427222Y-69082991D01*
X169343557Y-68926466D01*
X169292037Y-68756627D01*
X169274641Y-68580000D01*
X169292037Y-68403373D01*
X169343557Y-68233534D01*
X169427222Y-68077009D01*
X169456552Y-68041271D01*
X169539814Y-67939814D01*
X169641271Y-67856552D01*
X169677009Y-67827222D01*
X169833534Y-67743557D01*
X170003373Y-67692037D01*
X170069557Y-67685519D01*
X170135740Y-67679000D01*
X170224260Y-67679000D01*
X170290443Y-67685519D01*
X170290443Y-67685519D01*
G37*
G36*
X167750443Y-67685519D02*
G01*
X167816627Y-67692037D01*
X167986466Y-67743557D01*
X168142991Y-67827222D01*
X168178729Y-67856552D01*
X168280186Y-67939814D01*
X168363448Y-68041271D01*
X168392778Y-68077009D01*
X168476443Y-68233534D01*
X168527963Y-68403373D01*
X168545359Y-68580000D01*
X168527963Y-68756627D01*
X168476443Y-68926466D01*
X168392778Y-69082991D01*
X168363448Y-69118729D01*
X168280186Y-69220186D01*
X168178729Y-69303448D01*
X168142991Y-69332778D01*
X167986466Y-69416443D01*
X167816627Y-69467963D01*
X167750442Y-69474482D01*
X167684260Y-69481000D01*
X167595740Y-69481000D01*
X167529558Y-69474482D01*
X167463373Y-69467963D01*
X167293534Y-69416443D01*
X167137009Y-69332778D01*
X167101271Y-69303448D01*
X166999814Y-69220186D01*
X166916552Y-69118729D01*
X166887222Y-69082991D01*
X166803557Y-68926466D01*
X166752037Y-68756627D01*
X166734641Y-68580000D01*
X166752037Y-68403373D01*
X166803557Y-68233534D01*
X166887222Y-68077009D01*
X166916552Y-68041271D01*
X166999814Y-67939814D01*
X167101271Y-67856552D01*
X167137009Y-67827222D01*
X167293534Y-67743557D01*
X167463373Y-67692037D01*
X167529557Y-67685519D01*
X167595740Y-67679000D01*
X167684260Y-67679000D01*
X167750443Y-67685519D01*
X167750443Y-67685519D01*
G37*
G36*
X165210443Y-67685519D02*
G01*
X165276627Y-67692037D01*
X165446466Y-67743557D01*
X165602991Y-67827222D01*
X165638729Y-67856552D01*
X165740186Y-67939814D01*
X165823448Y-68041271D01*
X165852778Y-68077009D01*
X165936443Y-68233534D01*
X165987963Y-68403373D01*
X166005359Y-68580000D01*
X165987963Y-68756627D01*
X165936443Y-68926466D01*
X165852778Y-69082991D01*
X165823448Y-69118729D01*
X165740186Y-69220186D01*
X165638729Y-69303448D01*
X165602991Y-69332778D01*
X165446466Y-69416443D01*
X165276627Y-69467963D01*
X165210442Y-69474482D01*
X165144260Y-69481000D01*
X165055740Y-69481000D01*
X164989558Y-69474482D01*
X164923373Y-69467963D01*
X164753534Y-69416443D01*
X164597009Y-69332778D01*
X164561271Y-69303448D01*
X164459814Y-69220186D01*
X164376552Y-69118729D01*
X164347222Y-69082991D01*
X164263557Y-68926466D01*
X164212037Y-68756627D01*
X164194641Y-68580000D01*
X164212037Y-68403373D01*
X164263557Y-68233534D01*
X164347222Y-68077009D01*
X164376552Y-68041271D01*
X164459814Y-67939814D01*
X164561271Y-67856552D01*
X164597009Y-67827222D01*
X164753534Y-67743557D01*
X164923373Y-67692037D01*
X164989557Y-67685519D01*
X165055740Y-67679000D01*
X165144260Y-67679000D01*
X165210443Y-67685519D01*
X165210443Y-67685519D01*
G37*
G36*
X162670443Y-67685519D02*
G01*
X162736627Y-67692037D01*
X162906466Y-67743557D01*
X163062991Y-67827222D01*
X163098729Y-67856552D01*
X163200186Y-67939814D01*
X163283448Y-68041271D01*
X163312778Y-68077009D01*
X163396443Y-68233534D01*
X163447963Y-68403373D01*
X163465359Y-68580000D01*
X163447963Y-68756627D01*
X163396443Y-68926466D01*
X163312778Y-69082991D01*
X163283448Y-69118729D01*
X163200186Y-69220186D01*
X163098729Y-69303448D01*
X163062991Y-69332778D01*
X162906466Y-69416443D01*
X162736627Y-69467963D01*
X162670442Y-69474482D01*
X162604260Y-69481000D01*
X162515740Y-69481000D01*
X162449558Y-69474482D01*
X162383373Y-69467963D01*
X162213534Y-69416443D01*
X162057009Y-69332778D01*
X162021271Y-69303448D01*
X161919814Y-69220186D01*
X161836552Y-69118729D01*
X161807222Y-69082991D01*
X161723557Y-68926466D01*
X161672037Y-68756627D01*
X161654641Y-68580000D01*
X161672037Y-68403373D01*
X161723557Y-68233534D01*
X161807222Y-68077009D01*
X161836552Y-68041271D01*
X161919814Y-67939814D01*
X162021271Y-67856552D01*
X162057009Y-67827222D01*
X162213534Y-67743557D01*
X162383373Y-67692037D01*
X162449557Y-67685519D01*
X162515740Y-67679000D01*
X162604260Y-67679000D01*
X162670443Y-67685519D01*
X162670443Y-67685519D01*
G37*
G36*
X160130443Y-67685519D02*
G01*
X160196627Y-67692037D01*
X160366466Y-67743557D01*
X160522991Y-67827222D01*
X160558729Y-67856552D01*
X160660186Y-67939814D01*
X160743448Y-68041271D01*
X160772778Y-68077009D01*
X160856443Y-68233534D01*
X160907963Y-68403373D01*
X160925359Y-68580000D01*
X160907963Y-68756627D01*
X160856443Y-68926466D01*
X160772778Y-69082991D01*
X160743448Y-69118729D01*
X160660186Y-69220186D01*
X160558729Y-69303448D01*
X160522991Y-69332778D01*
X160366466Y-69416443D01*
X160196627Y-69467963D01*
X160130442Y-69474482D01*
X160064260Y-69481000D01*
X159975740Y-69481000D01*
X159909558Y-69474482D01*
X159843373Y-69467963D01*
X159673534Y-69416443D01*
X159517009Y-69332778D01*
X159481271Y-69303448D01*
X159379814Y-69220186D01*
X159296552Y-69118729D01*
X159267222Y-69082991D01*
X159183557Y-68926466D01*
X159132037Y-68756627D01*
X159114641Y-68580000D01*
X159132037Y-68403373D01*
X159183557Y-68233534D01*
X159267222Y-68077009D01*
X159296552Y-68041271D01*
X159379814Y-67939814D01*
X159481271Y-67856552D01*
X159517009Y-67827222D01*
X159673534Y-67743557D01*
X159843373Y-67692037D01*
X159909557Y-67685519D01*
X159975740Y-67679000D01*
X160064260Y-67679000D01*
X160130443Y-67685519D01*
X160130443Y-67685519D01*
G37*
G36*
X157590443Y-67685519D02*
G01*
X157656627Y-67692037D01*
X157826466Y-67743557D01*
X157982991Y-67827222D01*
X158018729Y-67856552D01*
X158120186Y-67939814D01*
X158203448Y-68041271D01*
X158232778Y-68077009D01*
X158316443Y-68233534D01*
X158367963Y-68403373D01*
X158385359Y-68580000D01*
X158367963Y-68756627D01*
X158316443Y-68926466D01*
X158232778Y-69082991D01*
X158203448Y-69118729D01*
X158120186Y-69220186D01*
X158018729Y-69303448D01*
X157982991Y-69332778D01*
X157826466Y-69416443D01*
X157656627Y-69467963D01*
X157590442Y-69474482D01*
X157524260Y-69481000D01*
X157435740Y-69481000D01*
X157369558Y-69474482D01*
X157303373Y-69467963D01*
X157133534Y-69416443D01*
X156977009Y-69332778D01*
X156941271Y-69303448D01*
X156839814Y-69220186D01*
X156756552Y-69118729D01*
X156727222Y-69082991D01*
X156643557Y-68926466D01*
X156592037Y-68756627D01*
X156574641Y-68580000D01*
X156592037Y-68403373D01*
X156643557Y-68233534D01*
X156727222Y-68077009D01*
X156756552Y-68041271D01*
X156839814Y-67939814D01*
X156941271Y-67856552D01*
X156977009Y-67827222D01*
X157133534Y-67743557D01*
X157303373Y-67692037D01*
X157369557Y-67685519D01*
X157435740Y-67679000D01*
X157524260Y-67679000D01*
X157590443Y-67685519D01*
X157590443Y-67685519D01*
G37*
G36*
X155050443Y-67685519D02*
G01*
X155116627Y-67692037D01*
X155286466Y-67743557D01*
X155442991Y-67827222D01*
X155478729Y-67856552D01*
X155580186Y-67939814D01*
X155663448Y-68041271D01*
X155692778Y-68077009D01*
X155776443Y-68233534D01*
X155827963Y-68403373D01*
X155845359Y-68580000D01*
X155827963Y-68756627D01*
X155776443Y-68926466D01*
X155692778Y-69082991D01*
X155663448Y-69118729D01*
X155580186Y-69220186D01*
X155478729Y-69303448D01*
X155442991Y-69332778D01*
X155286466Y-69416443D01*
X155116627Y-69467963D01*
X155050442Y-69474482D01*
X154984260Y-69481000D01*
X154895740Y-69481000D01*
X154829558Y-69474482D01*
X154763373Y-69467963D01*
X154593534Y-69416443D01*
X154437009Y-69332778D01*
X154401271Y-69303448D01*
X154299814Y-69220186D01*
X154216552Y-69118729D01*
X154187222Y-69082991D01*
X154103557Y-68926466D01*
X154052037Y-68756627D01*
X154034641Y-68580000D01*
X154052037Y-68403373D01*
X154103557Y-68233534D01*
X154187222Y-68077009D01*
X154216552Y-68041271D01*
X154299814Y-67939814D01*
X154401271Y-67856552D01*
X154437009Y-67827222D01*
X154593534Y-67743557D01*
X154763373Y-67692037D01*
X154829557Y-67685519D01*
X154895740Y-67679000D01*
X154984260Y-67679000D01*
X155050443Y-67685519D01*
X155050443Y-67685519D01*
G37*
G36*
X152510443Y-67685519D02*
G01*
X152576627Y-67692037D01*
X152746466Y-67743557D01*
X152902991Y-67827222D01*
X152938729Y-67856552D01*
X153040186Y-67939814D01*
X153123448Y-68041271D01*
X153152778Y-68077009D01*
X153236443Y-68233534D01*
X153287963Y-68403373D01*
X153305359Y-68580000D01*
X153287963Y-68756627D01*
X153236443Y-68926466D01*
X153152778Y-69082991D01*
X153123448Y-69118729D01*
X153040186Y-69220186D01*
X152938729Y-69303448D01*
X152902991Y-69332778D01*
X152746466Y-69416443D01*
X152576627Y-69467963D01*
X152510442Y-69474482D01*
X152444260Y-69481000D01*
X152355740Y-69481000D01*
X152289558Y-69474482D01*
X152223373Y-69467963D01*
X152053534Y-69416443D01*
X151897009Y-69332778D01*
X151861271Y-69303448D01*
X151759814Y-69220186D01*
X151676552Y-69118729D01*
X151647222Y-69082991D01*
X151563557Y-68926466D01*
X151512037Y-68756627D01*
X151494641Y-68580000D01*
X151512037Y-68403373D01*
X151563557Y-68233534D01*
X151647222Y-68077009D01*
X151676552Y-68041271D01*
X151759814Y-67939814D01*
X151861271Y-67856552D01*
X151897009Y-67827222D01*
X152053534Y-67743557D01*
X152223373Y-67692037D01*
X152289557Y-67685519D01*
X152355740Y-67679000D01*
X152444260Y-67679000D01*
X152510443Y-67685519D01*
X152510443Y-67685519D01*
G37*
G36*
X149970443Y-67685519D02*
G01*
X150036627Y-67692037D01*
X150206466Y-67743557D01*
X150362991Y-67827222D01*
X150398729Y-67856552D01*
X150500186Y-67939814D01*
X150583448Y-68041271D01*
X150612778Y-68077009D01*
X150696443Y-68233534D01*
X150747963Y-68403373D01*
X150765359Y-68580000D01*
X150747963Y-68756627D01*
X150696443Y-68926466D01*
X150612778Y-69082991D01*
X150583448Y-69118729D01*
X150500186Y-69220186D01*
X150398729Y-69303448D01*
X150362991Y-69332778D01*
X150206466Y-69416443D01*
X150036627Y-69467963D01*
X149970442Y-69474482D01*
X149904260Y-69481000D01*
X149815740Y-69481000D01*
X149749558Y-69474482D01*
X149683373Y-69467963D01*
X149513534Y-69416443D01*
X149357009Y-69332778D01*
X149321271Y-69303448D01*
X149219814Y-69220186D01*
X149136552Y-69118729D01*
X149107222Y-69082991D01*
X149023557Y-68926466D01*
X148972037Y-68756627D01*
X148954641Y-68580000D01*
X148972037Y-68403373D01*
X149023557Y-68233534D01*
X149107222Y-68077009D01*
X149136552Y-68041271D01*
X149219814Y-67939814D01*
X149321271Y-67856552D01*
X149357009Y-67827222D01*
X149513534Y-67743557D01*
X149683373Y-67692037D01*
X149749557Y-67685519D01*
X149815740Y-67679000D01*
X149904260Y-67679000D01*
X149970443Y-67685519D01*
X149970443Y-67685519D01*
G37*
G36*
X147430443Y-67685519D02*
G01*
X147496627Y-67692037D01*
X147666466Y-67743557D01*
X147822991Y-67827222D01*
X147858729Y-67856552D01*
X147960186Y-67939814D01*
X148043448Y-68041271D01*
X148072778Y-68077009D01*
X148156443Y-68233534D01*
X148207963Y-68403373D01*
X148225359Y-68580000D01*
X148207963Y-68756627D01*
X148156443Y-68926466D01*
X148072778Y-69082991D01*
X148043448Y-69118729D01*
X147960186Y-69220186D01*
X147858729Y-69303448D01*
X147822991Y-69332778D01*
X147666466Y-69416443D01*
X147496627Y-69467963D01*
X147430442Y-69474482D01*
X147364260Y-69481000D01*
X147275740Y-69481000D01*
X147209558Y-69474482D01*
X147143373Y-69467963D01*
X146973534Y-69416443D01*
X146817009Y-69332778D01*
X146781271Y-69303448D01*
X146679814Y-69220186D01*
X146596552Y-69118729D01*
X146567222Y-69082991D01*
X146483557Y-68926466D01*
X146432037Y-68756627D01*
X146414641Y-68580000D01*
X146432037Y-68403373D01*
X146483557Y-68233534D01*
X146567222Y-68077009D01*
X146596552Y-68041271D01*
X146679814Y-67939814D01*
X146781271Y-67856552D01*
X146817009Y-67827222D01*
X146973534Y-67743557D01*
X147143373Y-67692037D01*
X147209557Y-67685519D01*
X147275740Y-67679000D01*
X147364260Y-67679000D01*
X147430443Y-67685519D01*
X147430443Y-67685519D01*
G37*
G36*
X144890443Y-67685519D02*
G01*
X144956627Y-67692037D01*
X145126466Y-67743557D01*
X145282991Y-67827222D01*
X145318729Y-67856552D01*
X145420186Y-67939814D01*
X145503448Y-68041271D01*
X145532778Y-68077009D01*
X145616443Y-68233534D01*
X145667963Y-68403373D01*
X145685359Y-68580000D01*
X145667963Y-68756627D01*
X145616443Y-68926466D01*
X145532778Y-69082991D01*
X145503448Y-69118729D01*
X145420186Y-69220186D01*
X145318729Y-69303448D01*
X145282991Y-69332778D01*
X145126466Y-69416443D01*
X144956627Y-69467963D01*
X144890442Y-69474482D01*
X144824260Y-69481000D01*
X144735740Y-69481000D01*
X144669558Y-69474482D01*
X144603373Y-69467963D01*
X144433534Y-69416443D01*
X144277009Y-69332778D01*
X144241271Y-69303448D01*
X144139814Y-69220186D01*
X144056552Y-69118729D01*
X144027222Y-69082991D01*
X143943557Y-68926466D01*
X143892037Y-68756627D01*
X143874641Y-68580000D01*
X143892037Y-68403373D01*
X143943557Y-68233534D01*
X144027222Y-68077009D01*
X144056552Y-68041271D01*
X144139814Y-67939814D01*
X144241271Y-67856552D01*
X144277009Y-67827222D01*
X144433534Y-67743557D01*
X144603373Y-67692037D01*
X144669557Y-67685519D01*
X144735740Y-67679000D01*
X144824260Y-67679000D01*
X144890443Y-67685519D01*
X144890443Y-67685519D01*
G37*
G36*
X119490443Y-52445519D02*
G01*
X119556627Y-52452037D01*
X119726466Y-52503557D01*
X119882991Y-52587222D01*
X119918729Y-52616552D01*
X120020186Y-52699814D01*
X120103448Y-52801271D01*
X120132778Y-52837009D01*
X120216443Y-52993534D01*
X120267963Y-53163373D01*
X120285359Y-53340000D01*
X120267963Y-53516627D01*
X120216443Y-53686466D01*
X120132778Y-53842991D01*
X120103448Y-53878729D01*
X120020186Y-53980186D01*
X119918729Y-54063448D01*
X119882991Y-54092778D01*
X119726466Y-54176443D01*
X119556627Y-54227963D01*
X119490442Y-54234482D01*
X119424260Y-54241000D01*
X119335740Y-54241000D01*
X119269558Y-54234482D01*
X119203373Y-54227963D01*
X119033534Y-54176443D01*
X118877009Y-54092778D01*
X118841271Y-54063448D01*
X118739814Y-53980186D01*
X118656552Y-53878729D01*
X118627222Y-53842991D01*
X118543557Y-53686466D01*
X118492037Y-53516627D01*
X118474641Y-53340000D01*
X118492037Y-53163373D01*
X118543557Y-52993534D01*
X118627222Y-52837009D01*
X118656552Y-52801271D01*
X118739814Y-52699814D01*
X118841271Y-52616552D01*
X118877009Y-52587222D01*
X119033534Y-52503557D01*
X119203373Y-52452037D01*
X119269558Y-52445518D01*
X119335740Y-52439000D01*
X119424260Y-52439000D01*
X119490443Y-52445519D01*
X119490443Y-52445519D01*
G37*
G36*
X122030443Y-52445519D02*
G01*
X122096627Y-52452037D01*
X122266466Y-52503557D01*
X122422991Y-52587222D01*
X122458729Y-52616552D01*
X122560186Y-52699814D01*
X122643448Y-52801271D01*
X122672778Y-52837009D01*
X122756443Y-52993534D01*
X122807963Y-53163373D01*
X122825359Y-53340000D01*
X122807963Y-53516627D01*
X122756443Y-53686466D01*
X122672778Y-53842991D01*
X122643448Y-53878729D01*
X122560186Y-53980186D01*
X122458729Y-54063448D01*
X122422991Y-54092778D01*
X122266466Y-54176443D01*
X122096627Y-54227963D01*
X122030442Y-54234482D01*
X121964260Y-54241000D01*
X121875740Y-54241000D01*
X121809558Y-54234482D01*
X121743373Y-54227963D01*
X121573534Y-54176443D01*
X121417009Y-54092778D01*
X121381271Y-54063448D01*
X121279814Y-53980186D01*
X121196552Y-53878729D01*
X121167222Y-53842991D01*
X121083557Y-53686466D01*
X121032037Y-53516627D01*
X121014641Y-53340000D01*
X121032037Y-53163373D01*
X121083557Y-52993534D01*
X121167222Y-52837009D01*
X121196552Y-52801271D01*
X121279814Y-52699814D01*
X121381271Y-52616552D01*
X121417009Y-52587222D01*
X121573534Y-52503557D01*
X121743373Y-52452037D01*
X121809558Y-52445518D01*
X121875740Y-52439000D01*
X121964260Y-52439000D01*
X122030443Y-52445519D01*
X122030443Y-52445519D01*
G37*
G36*
X124570443Y-52445519D02*
G01*
X124636627Y-52452037D01*
X124806466Y-52503557D01*
X124962991Y-52587222D01*
X124998729Y-52616552D01*
X125100186Y-52699814D01*
X125183448Y-52801271D01*
X125212778Y-52837009D01*
X125296443Y-52993534D01*
X125347963Y-53163373D01*
X125365359Y-53340000D01*
X125347963Y-53516627D01*
X125296443Y-53686466D01*
X125212778Y-53842991D01*
X125183448Y-53878729D01*
X125100186Y-53980186D01*
X124998729Y-54063448D01*
X124962991Y-54092778D01*
X124806466Y-54176443D01*
X124636627Y-54227963D01*
X124570442Y-54234482D01*
X124504260Y-54241000D01*
X124415740Y-54241000D01*
X124349558Y-54234482D01*
X124283373Y-54227963D01*
X124113534Y-54176443D01*
X123957009Y-54092778D01*
X123921271Y-54063448D01*
X123819814Y-53980186D01*
X123736552Y-53878729D01*
X123707222Y-53842991D01*
X123623557Y-53686466D01*
X123572037Y-53516627D01*
X123554641Y-53340000D01*
X123572037Y-53163373D01*
X123623557Y-52993534D01*
X123707222Y-52837009D01*
X123736552Y-52801271D01*
X123819814Y-52699814D01*
X123921271Y-52616552D01*
X123957009Y-52587222D01*
X124113534Y-52503557D01*
X124283373Y-52452037D01*
X124349558Y-52445518D01*
X124415740Y-52439000D01*
X124504260Y-52439000D01*
X124570443Y-52445519D01*
X124570443Y-52445519D01*
G37*
G36*
X127110443Y-52445519D02*
G01*
X127176627Y-52452037D01*
X127346466Y-52503557D01*
X127502991Y-52587222D01*
X127538729Y-52616552D01*
X127640186Y-52699814D01*
X127723448Y-52801271D01*
X127752778Y-52837009D01*
X127836443Y-52993534D01*
X127887963Y-53163373D01*
X127905359Y-53340000D01*
X127887963Y-53516627D01*
X127836443Y-53686466D01*
X127752778Y-53842991D01*
X127723448Y-53878729D01*
X127640186Y-53980186D01*
X127538729Y-54063448D01*
X127502991Y-54092778D01*
X127346466Y-54176443D01*
X127176627Y-54227963D01*
X127110442Y-54234482D01*
X127044260Y-54241000D01*
X126955740Y-54241000D01*
X126889558Y-54234482D01*
X126823373Y-54227963D01*
X126653534Y-54176443D01*
X126497009Y-54092778D01*
X126461271Y-54063448D01*
X126359814Y-53980186D01*
X126276552Y-53878729D01*
X126247222Y-53842991D01*
X126163557Y-53686466D01*
X126112037Y-53516627D01*
X126094641Y-53340000D01*
X126112037Y-53163373D01*
X126163557Y-52993534D01*
X126247222Y-52837009D01*
X126276552Y-52801271D01*
X126359814Y-52699814D01*
X126461271Y-52616552D01*
X126497009Y-52587222D01*
X126653534Y-52503557D01*
X126823373Y-52452037D01*
X126889558Y-52445518D01*
X126955740Y-52439000D01*
X127044260Y-52439000D01*
X127110443Y-52445519D01*
X127110443Y-52445519D01*
G37*
G36*
X129650443Y-52445519D02*
G01*
X129716627Y-52452037D01*
X129886466Y-52503557D01*
X130042991Y-52587222D01*
X130078729Y-52616552D01*
X130180186Y-52699814D01*
X130263448Y-52801271D01*
X130292778Y-52837009D01*
X130376443Y-52993534D01*
X130427963Y-53163373D01*
X130445359Y-53340000D01*
X130427963Y-53516627D01*
X130376443Y-53686466D01*
X130292778Y-53842991D01*
X130263448Y-53878729D01*
X130180186Y-53980186D01*
X130078729Y-54063448D01*
X130042991Y-54092778D01*
X129886466Y-54176443D01*
X129716627Y-54227963D01*
X129650442Y-54234482D01*
X129584260Y-54241000D01*
X129495740Y-54241000D01*
X129429558Y-54234482D01*
X129363373Y-54227963D01*
X129193534Y-54176443D01*
X129037009Y-54092778D01*
X129001271Y-54063448D01*
X128899814Y-53980186D01*
X128816552Y-53878729D01*
X128787222Y-53842991D01*
X128703557Y-53686466D01*
X128652037Y-53516627D01*
X128634641Y-53340000D01*
X128652037Y-53163373D01*
X128703557Y-52993534D01*
X128787222Y-52837009D01*
X128816552Y-52801271D01*
X128899814Y-52699814D01*
X129001271Y-52616552D01*
X129037009Y-52587222D01*
X129193534Y-52503557D01*
X129363373Y-52452037D01*
X129429558Y-52445518D01*
X129495740Y-52439000D01*
X129584260Y-52439000D01*
X129650443Y-52445519D01*
X129650443Y-52445519D01*
G37*
G36*
X132190443Y-52445519D02*
G01*
X132256627Y-52452037D01*
X132426466Y-52503557D01*
X132582991Y-52587222D01*
X132618729Y-52616552D01*
X132720186Y-52699814D01*
X132803448Y-52801271D01*
X132832778Y-52837009D01*
X132916443Y-52993534D01*
X132967963Y-53163373D01*
X132985359Y-53340000D01*
X132967963Y-53516627D01*
X132916443Y-53686466D01*
X132832778Y-53842991D01*
X132803448Y-53878729D01*
X132720186Y-53980186D01*
X132618729Y-54063448D01*
X132582991Y-54092778D01*
X132426466Y-54176443D01*
X132256627Y-54227963D01*
X132190442Y-54234482D01*
X132124260Y-54241000D01*
X132035740Y-54241000D01*
X131969558Y-54234482D01*
X131903373Y-54227963D01*
X131733534Y-54176443D01*
X131577009Y-54092778D01*
X131541271Y-54063448D01*
X131439814Y-53980186D01*
X131356552Y-53878729D01*
X131327222Y-53842991D01*
X131243557Y-53686466D01*
X131192037Y-53516627D01*
X131174641Y-53340000D01*
X131192037Y-53163373D01*
X131243557Y-52993534D01*
X131327222Y-52837009D01*
X131356552Y-52801271D01*
X131439814Y-52699814D01*
X131541271Y-52616552D01*
X131577009Y-52587222D01*
X131733534Y-52503557D01*
X131903373Y-52452037D01*
X131969558Y-52445518D01*
X132035740Y-52439000D01*
X132124260Y-52439000D01*
X132190443Y-52445519D01*
X132190443Y-52445519D01*
G37*
G36*
X134730443Y-52445519D02*
G01*
X134796627Y-52452037D01*
X134966466Y-52503557D01*
X135122991Y-52587222D01*
X135158729Y-52616552D01*
X135260186Y-52699814D01*
X135343448Y-52801271D01*
X135372778Y-52837009D01*
X135456443Y-52993534D01*
X135507963Y-53163373D01*
X135525359Y-53340000D01*
X135507963Y-53516627D01*
X135456443Y-53686466D01*
X135372778Y-53842991D01*
X135343448Y-53878729D01*
X135260186Y-53980186D01*
X135158729Y-54063448D01*
X135122991Y-54092778D01*
X134966466Y-54176443D01*
X134796627Y-54227963D01*
X134730442Y-54234482D01*
X134664260Y-54241000D01*
X134575740Y-54241000D01*
X134509558Y-54234482D01*
X134443373Y-54227963D01*
X134273534Y-54176443D01*
X134117009Y-54092778D01*
X134081271Y-54063448D01*
X133979814Y-53980186D01*
X133896552Y-53878729D01*
X133867222Y-53842991D01*
X133783557Y-53686466D01*
X133732037Y-53516627D01*
X133714641Y-53340000D01*
X133732037Y-53163373D01*
X133783557Y-52993534D01*
X133867222Y-52837009D01*
X133896552Y-52801271D01*
X133979814Y-52699814D01*
X134081271Y-52616552D01*
X134117009Y-52587222D01*
X134273534Y-52503557D01*
X134443373Y-52452037D01*
X134509558Y-52445518D01*
X134575740Y-52439000D01*
X134664260Y-52439000D01*
X134730443Y-52445519D01*
X134730443Y-52445519D01*
G37*
G36*
X137270443Y-52445519D02*
G01*
X137336627Y-52452037D01*
X137506466Y-52503557D01*
X137662991Y-52587222D01*
X137698729Y-52616552D01*
X137800186Y-52699814D01*
X137883448Y-52801271D01*
X137912778Y-52837009D01*
X137996443Y-52993534D01*
X138047963Y-53163373D01*
X138065359Y-53340000D01*
X138047963Y-53516627D01*
X137996443Y-53686466D01*
X137912778Y-53842991D01*
X137883448Y-53878729D01*
X137800186Y-53980186D01*
X137698729Y-54063448D01*
X137662991Y-54092778D01*
X137506466Y-54176443D01*
X137336627Y-54227963D01*
X137270442Y-54234482D01*
X137204260Y-54241000D01*
X137115740Y-54241000D01*
X137049558Y-54234482D01*
X136983373Y-54227963D01*
X136813534Y-54176443D01*
X136657009Y-54092778D01*
X136621271Y-54063448D01*
X136519814Y-53980186D01*
X136436552Y-53878729D01*
X136407222Y-53842991D01*
X136323557Y-53686466D01*
X136272037Y-53516627D01*
X136254641Y-53340000D01*
X136272037Y-53163373D01*
X136323557Y-52993534D01*
X136407222Y-52837009D01*
X136436552Y-52801271D01*
X136519814Y-52699814D01*
X136621271Y-52616552D01*
X136657009Y-52587222D01*
X136813534Y-52503557D01*
X136983373Y-52452037D01*
X137049558Y-52445518D01*
X137115740Y-52439000D01*
X137204260Y-52439000D01*
X137270443Y-52445519D01*
X137270443Y-52445519D01*
G37*
G36*
X116950443Y-52445519D02*
G01*
X117016627Y-52452037D01*
X117186466Y-52503557D01*
X117342991Y-52587222D01*
X117378729Y-52616552D01*
X117480186Y-52699814D01*
X117563448Y-52801271D01*
X117592778Y-52837009D01*
X117676443Y-52993534D01*
X117727963Y-53163373D01*
X117745359Y-53340000D01*
X117727963Y-53516627D01*
X117676443Y-53686466D01*
X117592778Y-53842991D01*
X117563448Y-53878729D01*
X117480186Y-53980186D01*
X117378729Y-54063448D01*
X117342991Y-54092778D01*
X117186466Y-54176443D01*
X117016627Y-54227963D01*
X116950442Y-54234482D01*
X116884260Y-54241000D01*
X116795740Y-54241000D01*
X116729558Y-54234482D01*
X116663373Y-54227963D01*
X116493534Y-54176443D01*
X116337009Y-54092778D01*
X116301271Y-54063448D01*
X116199814Y-53980186D01*
X116116552Y-53878729D01*
X116087222Y-53842991D01*
X116003557Y-53686466D01*
X115952037Y-53516627D01*
X115934641Y-53340000D01*
X115952037Y-53163373D01*
X116003557Y-52993534D01*
X116087222Y-52837009D01*
X116116552Y-52801271D01*
X116199814Y-52699814D01*
X116301271Y-52616552D01*
X116337009Y-52587222D01*
X116493534Y-52503557D01*
X116663373Y-52452037D01*
X116729558Y-52445518D01*
X116795740Y-52439000D01*
X116884260Y-52439000D01*
X116950443Y-52445519D01*
X116950443Y-52445519D01*
G37*
G36*
X114410443Y-52445519D02*
G01*
X114476627Y-52452037D01*
X114646466Y-52503557D01*
X114802991Y-52587222D01*
X114838729Y-52616552D01*
X114940186Y-52699814D01*
X115023448Y-52801271D01*
X115052778Y-52837009D01*
X115136443Y-52993534D01*
X115187963Y-53163373D01*
X115205359Y-53340000D01*
X115187963Y-53516627D01*
X115136443Y-53686466D01*
X115052778Y-53842991D01*
X115023448Y-53878729D01*
X114940186Y-53980186D01*
X114838729Y-54063448D01*
X114802991Y-54092778D01*
X114646466Y-54176443D01*
X114476627Y-54227963D01*
X114410442Y-54234482D01*
X114344260Y-54241000D01*
X114255740Y-54241000D01*
X114189558Y-54234482D01*
X114123373Y-54227963D01*
X113953534Y-54176443D01*
X113797009Y-54092778D01*
X113761271Y-54063448D01*
X113659814Y-53980186D01*
X113576552Y-53878729D01*
X113547222Y-53842991D01*
X113463557Y-53686466D01*
X113412037Y-53516627D01*
X113394641Y-53340000D01*
X113412037Y-53163373D01*
X113463557Y-52993534D01*
X113547222Y-52837009D01*
X113576552Y-52801271D01*
X113659814Y-52699814D01*
X113761271Y-52616552D01*
X113797009Y-52587222D01*
X113953534Y-52503557D01*
X114123373Y-52452037D01*
X114189558Y-52445518D01*
X114255740Y-52439000D01*
X114344260Y-52439000D01*
X114410443Y-52445519D01*
X114410443Y-52445519D01*
G37*
G36*
X111870443Y-52445519D02*
G01*
X111936627Y-52452037D01*
X112106466Y-52503557D01*
X112262991Y-52587222D01*
X112298729Y-52616552D01*
X112400186Y-52699814D01*
X112483448Y-52801271D01*
X112512778Y-52837009D01*
X112596443Y-52993534D01*
X112647963Y-53163373D01*
X112665359Y-53340000D01*
X112647963Y-53516627D01*
X112596443Y-53686466D01*
X112512778Y-53842991D01*
X112483448Y-53878729D01*
X112400186Y-53980186D01*
X112298729Y-54063448D01*
X112262991Y-54092778D01*
X112106466Y-54176443D01*
X111936627Y-54227963D01*
X111870442Y-54234482D01*
X111804260Y-54241000D01*
X111715740Y-54241000D01*
X111649558Y-54234482D01*
X111583373Y-54227963D01*
X111413534Y-54176443D01*
X111257009Y-54092778D01*
X111221271Y-54063448D01*
X111119814Y-53980186D01*
X111036552Y-53878729D01*
X111007222Y-53842991D01*
X110923557Y-53686466D01*
X110872037Y-53516627D01*
X110854641Y-53340000D01*
X110872037Y-53163373D01*
X110923557Y-52993534D01*
X111007222Y-52837009D01*
X111036552Y-52801271D01*
X111119814Y-52699814D01*
X111221271Y-52616552D01*
X111257009Y-52587222D01*
X111413534Y-52503557D01*
X111583373Y-52452037D01*
X111649558Y-52445518D01*
X111715740Y-52439000D01*
X111804260Y-52439000D01*
X111870443Y-52445519D01*
X111870443Y-52445519D01*
G37*
G36*
X109330443Y-52445519D02*
G01*
X109396627Y-52452037D01*
X109566466Y-52503557D01*
X109722991Y-52587222D01*
X109758729Y-52616552D01*
X109860186Y-52699814D01*
X109943448Y-52801271D01*
X109972778Y-52837009D01*
X110056443Y-52993534D01*
X110107963Y-53163373D01*
X110125359Y-53340000D01*
X110107963Y-53516627D01*
X110056443Y-53686466D01*
X109972778Y-53842991D01*
X109943448Y-53878729D01*
X109860186Y-53980186D01*
X109758729Y-54063448D01*
X109722991Y-54092778D01*
X109566466Y-54176443D01*
X109396627Y-54227963D01*
X109330442Y-54234482D01*
X109264260Y-54241000D01*
X109175740Y-54241000D01*
X109109558Y-54234482D01*
X109043373Y-54227963D01*
X108873534Y-54176443D01*
X108717009Y-54092778D01*
X108681271Y-54063448D01*
X108579814Y-53980186D01*
X108496552Y-53878729D01*
X108467222Y-53842991D01*
X108383557Y-53686466D01*
X108332037Y-53516627D01*
X108314641Y-53340000D01*
X108332037Y-53163373D01*
X108383557Y-52993534D01*
X108467222Y-52837009D01*
X108496552Y-52801271D01*
X108579814Y-52699814D01*
X108681271Y-52616552D01*
X108717009Y-52587222D01*
X108873534Y-52503557D01*
X109043373Y-52452037D01*
X109109558Y-52445518D01*
X109175740Y-52439000D01*
X109264260Y-52439000D01*
X109330443Y-52445519D01*
X109330443Y-52445519D01*
G37*
G36*
X106790443Y-52445519D02*
G01*
X106856627Y-52452037D01*
X107026466Y-52503557D01*
X107182991Y-52587222D01*
X107218729Y-52616552D01*
X107320186Y-52699814D01*
X107403448Y-52801271D01*
X107432778Y-52837009D01*
X107516443Y-52993534D01*
X107567963Y-53163373D01*
X107585359Y-53340000D01*
X107567963Y-53516627D01*
X107516443Y-53686466D01*
X107432778Y-53842991D01*
X107403448Y-53878729D01*
X107320186Y-53980186D01*
X107218729Y-54063448D01*
X107182991Y-54092778D01*
X107026466Y-54176443D01*
X106856627Y-54227963D01*
X106790442Y-54234482D01*
X106724260Y-54241000D01*
X106635740Y-54241000D01*
X106569558Y-54234482D01*
X106503373Y-54227963D01*
X106333534Y-54176443D01*
X106177009Y-54092778D01*
X106141271Y-54063448D01*
X106039814Y-53980186D01*
X105956552Y-53878729D01*
X105927222Y-53842991D01*
X105843557Y-53686466D01*
X105792037Y-53516627D01*
X105774641Y-53340000D01*
X105792037Y-53163373D01*
X105843557Y-52993534D01*
X105927222Y-52837009D01*
X105956552Y-52801271D01*
X106039814Y-52699814D01*
X106141271Y-52616552D01*
X106177009Y-52587222D01*
X106333534Y-52503557D01*
X106503373Y-52452037D01*
X106569558Y-52445518D01*
X106635740Y-52439000D01*
X106724260Y-52439000D01*
X106790443Y-52445519D01*
X106790443Y-52445519D01*
G37*
G36*
X104250443Y-52445519D02*
G01*
X104316627Y-52452037D01*
X104486466Y-52503557D01*
X104642991Y-52587222D01*
X104678729Y-52616552D01*
X104780186Y-52699814D01*
X104863448Y-52801271D01*
X104892778Y-52837009D01*
X104976443Y-52993534D01*
X105027963Y-53163373D01*
X105045359Y-53340000D01*
X105027963Y-53516627D01*
X104976443Y-53686466D01*
X104892778Y-53842991D01*
X104863448Y-53878729D01*
X104780186Y-53980186D01*
X104678729Y-54063448D01*
X104642991Y-54092778D01*
X104486466Y-54176443D01*
X104316627Y-54227963D01*
X104250442Y-54234482D01*
X104184260Y-54241000D01*
X104095740Y-54241000D01*
X104029558Y-54234482D01*
X103963373Y-54227963D01*
X103793534Y-54176443D01*
X103637009Y-54092778D01*
X103601271Y-54063448D01*
X103499814Y-53980186D01*
X103416552Y-53878729D01*
X103387222Y-53842991D01*
X103303557Y-53686466D01*
X103252037Y-53516627D01*
X103234641Y-53340000D01*
X103252037Y-53163373D01*
X103303557Y-52993534D01*
X103387222Y-52837009D01*
X103416552Y-52801271D01*
X103499814Y-52699814D01*
X103601271Y-52616552D01*
X103637009Y-52587222D01*
X103793534Y-52503557D01*
X103963373Y-52452037D01*
X104029558Y-52445518D01*
X104095740Y-52439000D01*
X104184260Y-52439000D01*
X104250443Y-52445519D01*
X104250443Y-52445519D01*
G37*
G36*
X139810443Y-52445519D02*
G01*
X139876627Y-52452037D01*
X140046466Y-52503557D01*
X140202991Y-52587222D01*
X140238729Y-52616552D01*
X140340186Y-52699814D01*
X140423448Y-52801271D01*
X140452778Y-52837009D01*
X140536443Y-52993534D01*
X140587963Y-53163373D01*
X140605359Y-53340000D01*
X140587963Y-53516627D01*
X140536443Y-53686466D01*
X140452778Y-53842991D01*
X140423448Y-53878729D01*
X140340186Y-53980186D01*
X140238729Y-54063448D01*
X140202991Y-54092778D01*
X140046466Y-54176443D01*
X139876627Y-54227963D01*
X139810442Y-54234482D01*
X139744260Y-54241000D01*
X139655740Y-54241000D01*
X139589558Y-54234482D01*
X139523373Y-54227963D01*
X139353534Y-54176443D01*
X139197009Y-54092778D01*
X139161271Y-54063448D01*
X139059814Y-53980186D01*
X138976552Y-53878729D01*
X138947222Y-53842991D01*
X138863557Y-53686466D01*
X138812037Y-53516627D01*
X138794641Y-53340000D01*
X138812037Y-53163373D01*
X138863557Y-52993534D01*
X138947222Y-52837009D01*
X138976552Y-52801271D01*
X139059814Y-52699814D01*
X139161271Y-52616552D01*
X139197009Y-52587222D01*
X139353534Y-52503557D01*
X139523373Y-52452037D01*
X139589558Y-52445518D01*
X139655740Y-52439000D01*
X139744260Y-52439000D01*
X139810443Y-52445519D01*
X139810443Y-52445519D01*
G37*
G36*
X173621000Y-54241000D02*
G01*
X171819000Y-54241000D01*
X171819000Y-52439000D01*
X173621000Y-52439000D01*
X173621000Y-54241000D01*
X173621000Y-54241000D01*
G37*
G36*
X170290443Y-52445519D02*
G01*
X170356627Y-52452037D01*
X170526466Y-52503557D01*
X170682991Y-52587222D01*
X170718729Y-52616552D01*
X170820186Y-52699814D01*
X170903448Y-52801271D01*
X170932778Y-52837009D01*
X171016443Y-52993534D01*
X171067963Y-53163373D01*
X171085359Y-53340000D01*
X171067963Y-53516627D01*
X171016443Y-53686466D01*
X170932778Y-53842991D01*
X170903448Y-53878729D01*
X170820186Y-53980186D01*
X170718729Y-54063448D01*
X170682991Y-54092778D01*
X170526466Y-54176443D01*
X170356627Y-54227963D01*
X170290442Y-54234482D01*
X170224260Y-54241000D01*
X170135740Y-54241000D01*
X170069558Y-54234482D01*
X170003373Y-54227963D01*
X169833534Y-54176443D01*
X169677009Y-54092778D01*
X169641271Y-54063448D01*
X169539814Y-53980186D01*
X169456552Y-53878729D01*
X169427222Y-53842991D01*
X169343557Y-53686466D01*
X169292037Y-53516627D01*
X169274641Y-53340000D01*
X169292037Y-53163373D01*
X169343557Y-52993534D01*
X169427222Y-52837009D01*
X169456552Y-52801271D01*
X169539814Y-52699814D01*
X169641271Y-52616552D01*
X169677009Y-52587222D01*
X169833534Y-52503557D01*
X170003373Y-52452037D01*
X170069558Y-52445518D01*
X170135740Y-52439000D01*
X170224260Y-52439000D01*
X170290443Y-52445519D01*
X170290443Y-52445519D01*
G37*
G36*
X167750443Y-52445519D02*
G01*
X167816627Y-52452037D01*
X167986466Y-52503557D01*
X168142991Y-52587222D01*
X168178729Y-52616552D01*
X168280186Y-52699814D01*
X168363448Y-52801271D01*
X168392778Y-52837009D01*
X168476443Y-52993534D01*
X168527963Y-53163373D01*
X168545359Y-53340000D01*
X168527963Y-53516627D01*
X168476443Y-53686466D01*
X168392778Y-53842991D01*
X168363448Y-53878729D01*
X168280186Y-53980186D01*
X168178729Y-54063448D01*
X168142991Y-54092778D01*
X167986466Y-54176443D01*
X167816627Y-54227963D01*
X167750442Y-54234482D01*
X167684260Y-54241000D01*
X167595740Y-54241000D01*
X167529558Y-54234482D01*
X167463373Y-54227963D01*
X167293534Y-54176443D01*
X167137009Y-54092778D01*
X167101271Y-54063448D01*
X166999814Y-53980186D01*
X166916552Y-53878729D01*
X166887222Y-53842991D01*
X166803557Y-53686466D01*
X166752037Y-53516627D01*
X166734641Y-53340000D01*
X166752037Y-53163373D01*
X166803557Y-52993534D01*
X166887222Y-52837009D01*
X166916552Y-52801271D01*
X166999814Y-52699814D01*
X167101271Y-52616552D01*
X167137009Y-52587222D01*
X167293534Y-52503557D01*
X167463373Y-52452037D01*
X167529558Y-52445518D01*
X167595740Y-52439000D01*
X167684260Y-52439000D01*
X167750443Y-52445519D01*
X167750443Y-52445519D01*
G37*
G36*
X165210443Y-52445519D02*
G01*
X165276627Y-52452037D01*
X165446466Y-52503557D01*
X165602991Y-52587222D01*
X165638729Y-52616552D01*
X165740186Y-52699814D01*
X165823448Y-52801271D01*
X165852778Y-52837009D01*
X165936443Y-52993534D01*
X165987963Y-53163373D01*
X166005359Y-53340000D01*
X165987963Y-53516627D01*
X165936443Y-53686466D01*
X165852778Y-53842991D01*
X165823448Y-53878729D01*
X165740186Y-53980186D01*
X165638729Y-54063448D01*
X165602991Y-54092778D01*
X165446466Y-54176443D01*
X165276627Y-54227963D01*
X165210442Y-54234482D01*
X165144260Y-54241000D01*
X165055740Y-54241000D01*
X164989558Y-54234482D01*
X164923373Y-54227963D01*
X164753534Y-54176443D01*
X164597009Y-54092778D01*
X164561271Y-54063448D01*
X164459814Y-53980186D01*
X164376552Y-53878729D01*
X164347222Y-53842991D01*
X164263557Y-53686466D01*
X164212037Y-53516627D01*
X164194641Y-53340000D01*
X164212037Y-53163373D01*
X164263557Y-52993534D01*
X164347222Y-52837009D01*
X164376552Y-52801271D01*
X164459814Y-52699814D01*
X164561271Y-52616552D01*
X164597009Y-52587222D01*
X164753534Y-52503557D01*
X164923373Y-52452037D01*
X164989558Y-52445518D01*
X165055740Y-52439000D01*
X165144260Y-52439000D01*
X165210443Y-52445519D01*
X165210443Y-52445519D01*
G37*
G36*
X162670443Y-52445519D02*
G01*
X162736627Y-52452037D01*
X162906466Y-52503557D01*
X163062991Y-52587222D01*
X163098729Y-52616552D01*
X163200186Y-52699814D01*
X163283448Y-52801271D01*
X163312778Y-52837009D01*
X163396443Y-52993534D01*
X163447963Y-53163373D01*
X163465359Y-53340000D01*
X163447963Y-53516627D01*
X163396443Y-53686466D01*
X163312778Y-53842991D01*
X163283448Y-53878729D01*
X163200186Y-53980186D01*
X163098729Y-54063448D01*
X163062991Y-54092778D01*
X162906466Y-54176443D01*
X162736627Y-54227963D01*
X162670442Y-54234482D01*
X162604260Y-54241000D01*
X162515740Y-54241000D01*
X162449558Y-54234482D01*
X162383373Y-54227963D01*
X162213534Y-54176443D01*
X162057009Y-54092778D01*
X162021271Y-54063448D01*
X161919814Y-53980186D01*
X161836552Y-53878729D01*
X161807222Y-53842991D01*
X161723557Y-53686466D01*
X161672037Y-53516627D01*
X161654641Y-53340000D01*
X161672037Y-53163373D01*
X161723557Y-52993534D01*
X161807222Y-52837009D01*
X161836552Y-52801271D01*
X161919814Y-52699814D01*
X162021271Y-52616552D01*
X162057009Y-52587222D01*
X162213534Y-52503557D01*
X162383373Y-52452037D01*
X162449558Y-52445518D01*
X162515740Y-52439000D01*
X162604260Y-52439000D01*
X162670443Y-52445519D01*
X162670443Y-52445519D01*
G37*
G36*
X160130443Y-52445519D02*
G01*
X160196627Y-52452037D01*
X160366466Y-52503557D01*
X160522991Y-52587222D01*
X160558729Y-52616552D01*
X160660186Y-52699814D01*
X160743448Y-52801271D01*
X160772778Y-52837009D01*
X160856443Y-52993534D01*
X160907963Y-53163373D01*
X160925359Y-53340000D01*
X160907963Y-53516627D01*
X160856443Y-53686466D01*
X160772778Y-53842991D01*
X160743448Y-53878729D01*
X160660186Y-53980186D01*
X160558729Y-54063448D01*
X160522991Y-54092778D01*
X160366466Y-54176443D01*
X160196627Y-54227963D01*
X160130442Y-54234482D01*
X160064260Y-54241000D01*
X159975740Y-54241000D01*
X159909558Y-54234482D01*
X159843373Y-54227963D01*
X159673534Y-54176443D01*
X159517009Y-54092778D01*
X159481271Y-54063448D01*
X159379814Y-53980186D01*
X159296552Y-53878729D01*
X159267222Y-53842991D01*
X159183557Y-53686466D01*
X159132037Y-53516627D01*
X159114641Y-53340000D01*
X159132037Y-53163373D01*
X159183557Y-52993534D01*
X159267222Y-52837009D01*
X159296552Y-52801271D01*
X159379814Y-52699814D01*
X159481271Y-52616552D01*
X159517009Y-52587222D01*
X159673534Y-52503557D01*
X159843373Y-52452037D01*
X159909558Y-52445518D01*
X159975740Y-52439000D01*
X160064260Y-52439000D01*
X160130443Y-52445519D01*
X160130443Y-52445519D01*
G37*
G36*
X157590443Y-52445519D02*
G01*
X157656627Y-52452037D01*
X157826466Y-52503557D01*
X157982991Y-52587222D01*
X158018729Y-52616552D01*
X158120186Y-52699814D01*
X158203448Y-52801271D01*
X158232778Y-52837009D01*
X158316443Y-52993534D01*
X158367963Y-53163373D01*
X158385359Y-53340000D01*
X158367963Y-53516627D01*
X158316443Y-53686466D01*
X158232778Y-53842991D01*
X158203448Y-53878729D01*
X158120186Y-53980186D01*
X158018729Y-54063448D01*
X157982991Y-54092778D01*
X157826466Y-54176443D01*
X157656627Y-54227963D01*
X157590442Y-54234482D01*
X157524260Y-54241000D01*
X157435740Y-54241000D01*
X157369558Y-54234482D01*
X157303373Y-54227963D01*
X157133534Y-54176443D01*
X156977009Y-54092778D01*
X156941271Y-54063448D01*
X156839814Y-53980186D01*
X156756552Y-53878729D01*
X156727222Y-53842991D01*
X156643557Y-53686466D01*
X156592037Y-53516627D01*
X156574641Y-53340000D01*
X156592037Y-53163373D01*
X156643557Y-52993534D01*
X156727222Y-52837009D01*
X156756552Y-52801271D01*
X156839814Y-52699814D01*
X156941271Y-52616552D01*
X156977009Y-52587222D01*
X157133534Y-52503557D01*
X157303373Y-52452037D01*
X157369558Y-52445518D01*
X157435740Y-52439000D01*
X157524260Y-52439000D01*
X157590443Y-52445519D01*
X157590443Y-52445519D01*
G37*
G36*
X155050443Y-52445519D02*
G01*
X155116627Y-52452037D01*
X155286466Y-52503557D01*
X155442991Y-52587222D01*
X155478729Y-52616552D01*
X155580186Y-52699814D01*
X155663448Y-52801271D01*
X155692778Y-52837009D01*
X155776443Y-52993534D01*
X155827963Y-53163373D01*
X155845359Y-53340000D01*
X155827963Y-53516627D01*
X155776443Y-53686466D01*
X155692778Y-53842991D01*
X155663448Y-53878729D01*
X155580186Y-53980186D01*
X155478729Y-54063448D01*
X155442991Y-54092778D01*
X155286466Y-54176443D01*
X155116627Y-54227963D01*
X155050442Y-54234482D01*
X154984260Y-54241000D01*
X154895740Y-54241000D01*
X154829558Y-54234482D01*
X154763373Y-54227963D01*
X154593534Y-54176443D01*
X154437009Y-54092778D01*
X154401271Y-54063448D01*
X154299814Y-53980186D01*
X154216552Y-53878729D01*
X154187222Y-53842991D01*
X154103557Y-53686466D01*
X154052037Y-53516627D01*
X154034641Y-53340000D01*
X154052037Y-53163373D01*
X154103557Y-52993534D01*
X154187222Y-52837009D01*
X154216552Y-52801271D01*
X154299814Y-52699814D01*
X154401271Y-52616552D01*
X154437009Y-52587222D01*
X154593534Y-52503557D01*
X154763373Y-52452037D01*
X154829558Y-52445518D01*
X154895740Y-52439000D01*
X154984260Y-52439000D01*
X155050443Y-52445519D01*
X155050443Y-52445519D01*
G37*
G36*
X152510443Y-52445519D02*
G01*
X152576627Y-52452037D01*
X152746466Y-52503557D01*
X152902991Y-52587222D01*
X152938729Y-52616552D01*
X153040186Y-52699814D01*
X153123448Y-52801271D01*
X153152778Y-52837009D01*
X153236443Y-52993534D01*
X153287963Y-53163373D01*
X153305359Y-53340000D01*
X153287963Y-53516627D01*
X153236443Y-53686466D01*
X153152778Y-53842991D01*
X153123448Y-53878729D01*
X153040186Y-53980186D01*
X152938729Y-54063448D01*
X152902991Y-54092778D01*
X152746466Y-54176443D01*
X152576627Y-54227963D01*
X152510442Y-54234482D01*
X152444260Y-54241000D01*
X152355740Y-54241000D01*
X152289558Y-54234482D01*
X152223373Y-54227963D01*
X152053534Y-54176443D01*
X151897009Y-54092778D01*
X151861271Y-54063448D01*
X151759814Y-53980186D01*
X151676552Y-53878729D01*
X151647222Y-53842991D01*
X151563557Y-53686466D01*
X151512037Y-53516627D01*
X151494641Y-53340000D01*
X151512037Y-53163373D01*
X151563557Y-52993534D01*
X151647222Y-52837009D01*
X151676552Y-52801271D01*
X151759814Y-52699814D01*
X151861271Y-52616552D01*
X151897009Y-52587222D01*
X152053534Y-52503557D01*
X152223373Y-52452037D01*
X152289558Y-52445518D01*
X152355740Y-52439000D01*
X152444260Y-52439000D01*
X152510443Y-52445519D01*
X152510443Y-52445519D01*
G37*
G36*
X149970443Y-52445519D02*
G01*
X150036627Y-52452037D01*
X150206466Y-52503557D01*
X150362991Y-52587222D01*
X150398729Y-52616552D01*
X150500186Y-52699814D01*
X150583448Y-52801271D01*
X150612778Y-52837009D01*
X150696443Y-52993534D01*
X150747963Y-53163373D01*
X150765359Y-53340000D01*
X150747963Y-53516627D01*
X150696443Y-53686466D01*
X150612778Y-53842991D01*
X150583448Y-53878729D01*
X150500186Y-53980186D01*
X150398729Y-54063448D01*
X150362991Y-54092778D01*
X150206466Y-54176443D01*
X150036627Y-54227963D01*
X149970442Y-54234482D01*
X149904260Y-54241000D01*
X149815740Y-54241000D01*
X149749558Y-54234482D01*
X149683373Y-54227963D01*
X149513534Y-54176443D01*
X149357009Y-54092778D01*
X149321271Y-54063448D01*
X149219814Y-53980186D01*
X149136552Y-53878729D01*
X149107222Y-53842991D01*
X149023557Y-53686466D01*
X148972037Y-53516627D01*
X148954641Y-53340000D01*
X148972037Y-53163373D01*
X149023557Y-52993534D01*
X149107222Y-52837009D01*
X149136552Y-52801271D01*
X149219814Y-52699814D01*
X149321271Y-52616552D01*
X149357009Y-52587222D01*
X149513534Y-52503557D01*
X149683373Y-52452037D01*
X149749558Y-52445518D01*
X149815740Y-52439000D01*
X149904260Y-52439000D01*
X149970443Y-52445519D01*
X149970443Y-52445519D01*
G37*
G36*
X147430443Y-52445519D02*
G01*
X147496627Y-52452037D01*
X147666466Y-52503557D01*
X147822991Y-52587222D01*
X147858729Y-52616552D01*
X147960186Y-52699814D01*
X148043448Y-52801271D01*
X148072778Y-52837009D01*
X148156443Y-52993534D01*
X148207963Y-53163373D01*
X148225359Y-53340000D01*
X148207963Y-53516627D01*
X148156443Y-53686466D01*
X148072778Y-53842991D01*
X148043448Y-53878729D01*
X147960186Y-53980186D01*
X147858729Y-54063448D01*
X147822991Y-54092778D01*
X147666466Y-54176443D01*
X147496627Y-54227963D01*
X147430442Y-54234482D01*
X147364260Y-54241000D01*
X147275740Y-54241000D01*
X147209558Y-54234482D01*
X147143373Y-54227963D01*
X146973534Y-54176443D01*
X146817009Y-54092778D01*
X146781271Y-54063448D01*
X146679814Y-53980186D01*
X146596552Y-53878729D01*
X146567222Y-53842991D01*
X146483557Y-53686466D01*
X146432037Y-53516627D01*
X146414641Y-53340000D01*
X146432037Y-53163373D01*
X146483557Y-52993534D01*
X146567222Y-52837009D01*
X146596552Y-52801271D01*
X146679814Y-52699814D01*
X146781271Y-52616552D01*
X146817009Y-52587222D01*
X146973534Y-52503557D01*
X147143373Y-52452037D01*
X147209558Y-52445518D01*
X147275740Y-52439000D01*
X147364260Y-52439000D01*
X147430443Y-52445519D01*
X147430443Y-52445519D01*
G37*
G36*
X144890443Y-52445519D02*
G01*
X144956627Y-52452037D01*
X145126466Y-52503557D01*
X145282991Y-52587222D01*
X145318729Y-52616552D01*
X145420186Y-52699814D01*
X145503448Y-52801271D01*
X145532778Y-52837009D01*
X145616443Y-52993534D01*
X145667963Y-53163373D01*
X145685359Y-53340000D01*
X145667963Y-53516627D01*
X145616443Y-53686466D01*
X145532778Y-53842991D01*
X145503448Y-53878729D01*
X145420186Y-53980186D01*
X145318729Y-54063448D01*
X145282991Y-54092778D01*
X145126466Y-54176443D01*
X144956627Y-54227963D01*
X144890442Y-54234482D01*
X144824260Y-54241000D01*
X144735740Y-54241000D01*
X144669558Y-54234482D01*
X144603373Y-54227963D01*
X144433534Y-54176443D01*
X144277009Y-54092778D01*
X144241271Y-54063448D01*
X144139814Y-53980186D01*
X144056552Y-53878729D01*
X144027222Y-53842991D01*
X143943557Y-53686466D01*
X143892037Y-53516627D01*
X143874641Y-53340000D01*
X143892037Y-53163373D01*
X143943557Y-52993534D01*
X144027222Y-52837009D01*
X144056552Y-52801271D01*
X144139814Y-52699814D01*
X144241271Y-52616552D01*
X144277009Y-52587222D01*
X144433534Y-52503557D01*
X144603373Y-52452037D01*
X144669558Y-52445518D01*
X144735740Y-52439000D01*
X144824260Y-52439000D01*
X144890443Y-52445519D01*
X144890443Y-52445519D01*
G37*
G36*
X142350443Y-52445519D02*
G01*
X142416627Y-52452037D01*
X142586466Y-52503557D01*
X142742991Y-52587222D01*
X142778729Y-52616552D01*
X142880186Y-52699814D01*
X142963448Y-52801271D01*
X142992778Y-52837009D01*
X143076443Y-52993534D01*
X143127963Y-53163373D01*
X143145359Y-53340000D01*
X143127963Y-53516627D01*
X143076443Y-53686466D01*
X142992778Y-53842991D01*
X142963448Y-53878729D01*
X142880186Y-53980186D01*
X142778729Y-54063448D01*
X142742991Y-54092778D01*
X142586466Y-54176443D01*
X142416627Y-54227963D01*
X142350442Y-54234482D01*
X142284260Y-54241000D01*
X142195740Y-54241000D01*
X142129558Y-54234482D01*
X142063373Y-54227963D01*
X141893534Y-54176443D01*
X141737009Y-54092778D01*
X141701271Y-54063448D01*
X141599814Y-53980186D01*
X141516552Y-53878729D01*
X141487222Y-53842991D01*
X141403557Y-53686466D01*
X141352037Y-53516627D01*
X141334641Y-53340000D01*
X141352037Y-53163373D01*
X141403557Y-52993534D01*
X141487222Y-52837009D01*
X141516552Y-52801271D01*
X141599814Y-52699814D01*
X141701271Y-52616552D01*
X141737009Y-52587222D01*
X141893534Y-52503557D01*
X142063373Y-52452037D01*
X142129558Y-52445518D01*
X142195740Y-52439000D01*
X142284260Y-52439000D01*
X142350443Y-52445519D01*
X142350443Y-52445519D01*
G37*
M02*
