G04 #@! TF.GenerationSoftware,KiCad,Pcbnew,(5.1.4)-1*
G04 #@! TF.CreationDate,2019-11-16T17:38:58+00:00*
G04 #@! TF.ProjectId,io-breakout,696f2d62-7265-4616-9b6f-75742e6b6963,rev?*
G04 #@! TF.SameCoordinates,Original*
G04 #@! TF.FileFunction,Legend,Bot*
G04 #@! TF.FilePolarity,Positive*
%FSLAX46Y46*%
G04 Gerber Fmt 4.6, Leading zero omitted, Abs format (unit mm)*
G04 Created by KiCad (PCBNEW (5.1.4)-1) date 2019-11-16 17:38:58*
%MOMM*%
%LPD*%
G04 APERTURE LIST*
%ADD10C,0.120000*%
%ADD11C,0.150000*%
G04 APERTURE END LIST*
D10*
X174050000Y-54670000D02*
X174050000Y-53340000D01*
X172720000Y-54670000D02*
X174050000Y-54670000D01*
X171450000Y-54670000D02*
X171450000Y-52010000D01*
X171450000Y-52010000D02*
X102810000Y-52010000D01*
X171450000Y-54670000D02*
X102810000Y-54670000D01*
X102810000Y-54670000D02*
X102810000Y-52010000D01*
X102810000Y-67250000D02*
X102810000Y-68580000D01*
X104140000Y-67250000D02*
X102810000Y-67250000D01*
X105410000Y-67250000D02*
X105410000Y-69910000D01*
X105410000Y-69910000D02*
X174050000Y-69910000D01*
X105410000Y-67250000D02*
X174050000Y-67250000D01*
X174050000Y-67250000D02*
X174050000Y-69910000D01*
D11*
X175597619Y-53673333D02*
X174883333Y-53673333D01*
X174740476Y-53720952D01*
X174645238Y-53816190D01*
X174597619Y-53959047D01*
X174597619Y-54054285D01*
X175502380Y-53244761D02*
X175550000Y-53197142D01*
X175597619Y-53101904D01*
X175597619Y-52863809D01*
X175550000Y-52768571D01*
X175502380Y-52720952D01*
X175407142Y-52673333D01*
X175311904Y-52673333D01*
X175169047Y-52720952D01*
X174597619Y-53292380D01*
X174597619Y-52673333D01*
X101262380Y-68246666D02*
X101976666Y-68246666D01*
X102119523Y-68199047D01*
X102214761Y-68103809D01*
X102262380Y-67960952D01*
X102262380Y-67865714D01*
X102262380Y-69246666D02*
X102262380Y-68675238D01*
X102262380Y-68960952D02*
X101262380Y-68960952D01*
X101405238Y-68865714D01*
X101500476Y-68770476D01*
X101548095Y-68675238D01*
M02*
