G04 #@! TF.GenerationSoftware,KiCad,Pcbnew,(5.1.4)-1*
G04 #@! TF.CreationDate,2019-11-16T17:38:58+00:00*
G04 #@! TF.ProjectId,io-breakout,696f2d62-7265-4616-9b6f-75742e6b6963,rev?*
G04 #@! TF.SameCoordinates,Original*
G04 #@! TF.FileFunction,Copper,L1,Top*
G04 #@! TF.FilePolarity,Positive*
%FSLAX46Y46*%
G04 Gerber Fmt 4.6, Leading zero omitted, Abs format (unit mm)*
G04 Created by KiCad (PCBNEW (5.1.4)-1) date 2019-11-16 17:38:58*
%MOMM*%
%LPD*%
G04 APERTURE LIST*
%ADD10R,0.285000X1.000000*%
%ADD11O,1.700000X1.700000*%
%ADD12R,1.700000X1.700000*%
%ADD13C,0.800000*%
%ADD14C,0.150000*%
G04 APERTURE END LIST*
D10*
X131680000Y-57210000D03*
X132180000Y-57210000D03*
X132680000Y-57210000D03*
X133180000Y-57210000D03*
X133680000Y-57210000D03*
X134180000Y-57210000D03*
X134680000Y-57210000D03*
X135180000Y-57210000D03*
X135680000Y-57210000D03*
X136180000Y-57210000D03*
X136680000Y-57210000D03*
X137180000Y-57210000D03*
X137680000Y-57210000D03*
X138180000Y-57210000D03*
X138680000Y-57210000D03*
X139180000Y-57210000D03*
X139680000Y-57210000D03*
X140180000Y-57210000D03*
X140680000Y-57210000D03*
X141180000Y-57210000D03*
X141680000Y-57210000D03*
X142180000Y-57210000D03*
X142680000Y-57210000D03*
X143180000Y-57210000D03*
X143680000Y-57210000D03*
X144180000Y-57210000D03*
X144680000Y-57210000D03*
X145180000Y-57210000D03*
X145180000Y-64710000D03*
X144680000Y-64710000D03*
X144180000Y-64710000D03*
X143680000Y-64710000D03*
X143180000Y-64710000D03*
X142680000Y-64710000D03*
X142180000Y-64710000D03*
X141680000Y-64710000D03*
X141180000Y-64710000D03*
X140680000Y-64710000D03*
X140180000Y-64710000D03*
X139680000Y-64710000D03*
X139180000Y-64710000D03*
X138680000Y-64710000D03*
X138180000Y-64710000D03*
X137680000Y-64710000D03*
X137180000Y-64710000D03*
X136680000Y-64710000D03*
X136180000Y-64710000D03*
X135680000Y-64710000D03*
X135180000Y-64710000D03*
X134680000Y-64710000D03*
X134180000Y-64710000D03*
X133680000Y-64710000D03*
X133180000Y-64710000D03*
X132680000Y-64710000D03*
X132180000Y-64710000D03*
X131680000Y-64710000D03*
D11*
X104140000Y-53340000D03*
X106680000Y-53340000D03*
X109220000Y-53340000D03*
X111760000Y-53340000D03*
X114300000Y-53340000D03*
X116840000Y-53340000D03*
X119380000Y-53340000D03*
X121920000Y-53340000D03*
X124460000Y-53340000D03*
X127000000Y-53340000D03*
X129540000Y-53340000D03*
X132080000Y-53340000D03*
X134620000Y-53340000D03*
X137160000Y-53340000D03*
X139700000Y-53340000D03*
X142240000Y-53340000D03*
X144780000Y-53340000D03*
X147320000Y-53340000D03*
X149860000Y-53340000D03*
X152400000Y-53340000D03*
X154940000Y-53340000D03*
X157480000Y-53340000D03*
X160020000Y-53340000D03*
X162560000Y-53340000D03*
X165100000Y-53340000D03*
X167640000Y-53340000D03*
X170180000Y-53340000D03*
D12*
X172720000Y-53340000D03*
D11*
X172720000Y-68580000D03*
X170180000Y-68580000D03*
X167640000Y-68580000D03*
X165100000Y-68580000D03*
X162560000Y-68580000D03*
X160020000Y-68580000D03*
X157480000Y-68580000D03*
X154940000Y-68580000D03*
X152400000Y-68580000D03*
X149860000Y-68580000D03*
X147320000Y-68580000D03*
X144780000Y-68580000D03*
X142240000Y-68580000D03*
X139700000Y-68580000D03*
X137160000Y-68580000D03*
X134620000Y-68580000D03*
X132080000Y-68580000D03*
X129540000Y-68580000D03*
X127000000Y-68580000D03*
X124460000Y-68580000D03*
X121920000Y-68580000D03*
X119380000Y-68580000D03*
X116840000Y-68580000D03*
X114300000Y-68580000D03*
X111760000Y-68580000D03*
X109220000Y-68580000D03*
X106680000Y-68580000D03*
D12*
X104140000Y-68580000D03*
D13*
X162559992Y-63500008D03*
X159258000Y-62738012D03*
X156210000Y-62113012D03*
X152908000Y-61468000D03*
X123952000Y-61468000D03*
X120650000Y-62113012D03*
X117602000Y-62738012D03*
X114300008Y-63500008D03*
X114300008Y-58419992D03*
X117602000Y-59181988D03*
X120650000Y-59806988D03*
X123952000Y-60452000D03*
X152908000Y-60452000D03*
X156210000Y-59806988D03*
X159258000Y-59181988D03*
X162559992Y-58419992D03*
D14*
X172720000Y-67580000D02*
X172720000Y-68580000D01*
X145180000Y-64710000D02*
X169850000Y-64710000D01*
X169850000Y-64710000D02*
X172720000Y-67580000D01*
X170180000Y-68580000D02*
X167035001Y-65435001D01*
X144680000Y-65360000D02*
X144680000Y-64710000D01*
X167035001Y-65435001D02*
X144755001Y-65435001D01*
X144755001Y-65435001D02*
X144680000Y-65360000D01*
X144739992Y-63500008D02*
X161994307Y-63500008D01*
X144180000Y-64060000D02*
X144739992Y-63500008D01*
X162560000Y-63500000D02*
X162559992Y-63500008D01*
X161994307Y-63500008D02*
X162559992Y-63500008D01*
X144180000Y-64710000D02*
X144180000Y-64060000D01*
X159258012Y-62738012D02*
X159258000Y-62738012D01*
X158692315Y-62738012D02*
X159258000Y-62738012D01*
X143680000Y-64060000D02*
X145001988Y-62738012D01*
X145001988Y-62738012D02*
X158692315Y-62738012D01*
X143680000Y-64710000D02*
X143680000Y-64060000D01*
X145126988Y-62113012D02*
X156210000Y-62113012D01*
X162560000Y-68463012D02*
X162560000Y-68580000D01*
X143180000Y-64060000D02*
X145126988Y-62113012D01*
X143180000Y-64710000D02*
X143180000Y-64060000D01*
X142680000Y-64060000D02*
X142680000Y-64710000D01*
X152908000Y-61468000D02*
X145272000Y-61468000D01*
X145272000Y-61468000D02*
X142680000Y-64060000D01*
X142824949Y-66004949D02*
X154904949Y-66004949D01*
X142180000Y-65360000D02*
X142824949Y-66004949D01*
X142180000Y-64710000D02*
X142180000Y-65360000D01*
X154904949Y-66004949D02*
X156630001Y-67730001D01*
X156630001Y-67730001D02*
X157480000Y-68580000D01*
X154090001Y-67730001D02*
X154940000Y-68580000D01*
X152664959Y-66304959D02*
X154090001Y-67730001D01*
X141680000Y-64710000D02*
X141680000Y-65360000D01*
X142624959Y-66304959D02*
X152664959Y-66304959D01*
X141680000Y-65360000D02*
X142624959Y-66304959D01*
X141180000Y-65360000D02*
X142424969Y-66604969D01*
X141180000Y-64710000D02*
X141180000Y-65360000D01*
X151550001Y-67730001D02*
X152400000Y-68580000D01*
X150424969Y-66604969D02*
X151550001Y-67730001D01*
X142424969Y-66604969D02*
X150424969Y-66604969D01*
X149010001Y-67730001D02*
X149860000Y-68580000D01*
X140680000Y-65360000D02*
X142224979Y-66904979D01*
X142224979Y-66904979D02*
X148184979Y-66904979D01*
X148184979Y-66904979D02*
X149010001Y-67730001D01*
X140680000Y-64710000D02*
X140680000Y-65360000D01*
X140180000Y-65360000D02*
X142024989Y-67204989D01*
X140180000Y-64710000D02*
X140180000Y-65360000D01*
X145944989Y-67204989D02*
X146470001Y-67730001D01*
X146470001Y-67730001D02*
X147320000Y-68580000D01*
X142024989Y-67204989D02*
X145944989Y-67204989D01*
X139680000Y-64710000D02*
X139680000Y-65360000D01*
X139680000Y-65360000D02*
X141824999Y-67504999D01*
X143930001Y-67730001D02*
X144780000Y-68580000D01*
X143704999Y-67504999D02*
X143930001Y-67730001D01*
X141824999Y-67504999D02*
X143704999Y-67504999D01*
X139180000Y-64710000D02*
X139180000Y-65520000D01*
X139180000Y-65520000D02*
X141390001Y-67730001D01*
X141390001Y-67730001D02*
X142240000Y-68580000D01*
X138680000Y-67560000D02*
X139700000Y-68580000D01*
X138680000Y-64710000D02*
X138680000Y-67560000D01*
X138180000Y-67560000D02*
X137160000Y-68580000D01*
X138180000Y-64710000D02*
X138180000Y-67560000D01*
X137680000Y-64710000D02*
X137680000Y-65520000D01*
X137680000Y-65520000D02*
X135469999Y-67730001D01*
X135469999Y-67730001D02*
X134620000Y-68580000D01*
X137180000Y-64710000D02*
X137180000Y-65360000D01*
X137180000Y-65360000D02*
X135035001Y-67504999D01*
X132929999Y-67730001D02*
X132080000Y-68580000D01*
X133155001Y-67504999D02*
X132929999Y-67730001D01*
X135035001Y-67504999D02*
X133155001Y-67504999D01*
X136680000Y-65360000D02*
X134835011Y-67204989D01*
X136680000Y-64710000D02*
X136680000Y-65360000D01*
X130915011Y-67204989D02*
X130389999Y-67730001D01*
X130389999Y-67730001D02*
X129540000Y-68580000D01*
X134835011Y-67204989D02*
X130915011Y-67204989D01*
X127849999Y-67730001D02*
X127000000Y-68580000D01*
X136180000Y-65360000D02*
X134635021Y-66904979D01*
X134635021Y-66904979D02*
X128675021Y-66904979D01*
X128675021Y-66904979D02*
X127849999Y-67730001D01*
X136180000Y-64710000D02*
X136180000Y-65360000D01*
X135680000Y-65360000D02*
X134435031Y-66604969D01*
X135680000Y-64710000D02*
X135680000Y-65360000D01*
X125309999Y-67730001D02*
X124460000Y-68580000D01*
X126435031Y-66604969D02*
X125309999Y-67730001D01*
X134435031Y-66604969D02*
X126435031Y-66604969D01*
X122769999Y-67730001D02*
X121920000Y-68580000D01*
X124195041Y-66304959D02*
X122769999Y-67730001D01*
X135180000Y-64710000D02*
X135180000Y-65360000D01*
X134235041Y-66304959D02*
X124195041Y-66304959D01*
X135180000Y-65360000D02*
X134235041Y-66304959D01*
X134035051Y-66004949D02*
X121955051Y-66004949D01*
X134680000Y-65360000D02*
X134035051Y-66004949D01*
X134680000Y-64710000D02*
X134680000Y-65360000D01*
X121955051Y-66004949D02*
X120229999Y-67730001D01*
X120229999Y-67730001D02*
X119380000Y-68580000D01*
X134180000Y-64060000D02*
X134180000Y-64710000D01*
X123952000Y-61468000D02*
X131588000Y-61468000D01*
X131588000Y-61468000D02*
X134180000Y-64060000D01*
X131733012Y-62113012D02*
X120650000Y-62113012D01*
X133680000Y-64060000D02*
X131733012Y-62113012D01*
X133680000Y-64710000D02*
X133680000Y-64060000D01*
X118167685Y-62738012D02*
X117602000Y-62738012D01*
X133180000Y-64060000D02*
X131858012Y-62738012D01*
X131858012Y-62738012D02*
X118167685Y-62738012D01*
X133180000Y-64710000D02*
X133180000Y-64060000D01*
X132120008Y-63500008D02*
X114865693Y-63500008D01*
X132680000Y-64060000D02*
X132120008Y-63500008D01*
X114865693Y-63500008D02*
X114300008Y-63500008D01*
X132680000Y-64710000D02*
X132680000Y-64060000D01*
X106680000Y-68580000D02*
X109824999Y-65435001D01*
X132180000Y-65360000D02*
X132180000Y-64710000D01*
X109824999Y-65435001D02*
X132104999Y-65435001D01*
X132104999Y-65435001D02*
X132180000Y-65360000D01*
X104140000Y-67580000D02*
X104140000Y-68580000D01*
X131680000Y-64710000D02*
X107010000Y-64710000D01*
X107010000Y-64710000D02*
X104140000Y-67580000D01*
X104140000Y-54340000D02*
X104140000Y-53340000D01*
X131680000Y-57210000D02*
X107010000Y-57210000D01*
X107010000Y-57210000D02*
X104140000Y-54340000D01*
X106680000Y-53340000D02*
X109824999Y-56484999D01*
X109824999Y-56484999D02*
X132104999Y-56484999D01*
X132180000Y-56560000D02*
X132180000Y-57210000D01*
X132104999Y-56484999D02*
X132180000Y-56560000D01*
X114300000Y-58420000D02*
X114300008Y-58419992D01*
X114865693Y-58419992D02*
X114300008Y-58419992D01*
X132680000Y-57210000D02*
X132680000Y-57860000D01*
X132120008Y-58419992D02*
X114865693Y-58419992D01*
X132680000Y-57860000D02*
X132120008Y-58419992D01*
X118167685Y-59181988D02*
X117602000Y-59181988D01*
X133180000Y-57860000D02*
X131858012Y-59181988D01*
X117601988Y-59181988D02*
X117602000Y-59181988D01*
X133180000Y-57210000D02*
X133180000Y-57860000D01*
X131858012Y-59181988D02*
X118167685Y-59181988D01*
X114300000Y-53456988D02*
X114300000Y-53340000D01*
X133680000Y-57210000D02*
X133680000Y-57860000D01*
X133680000Y-57860000D02*
X131733012Y-59806988D01*
X131733012Y-59806988D02*
X120650000Y-59806988D01*
X123952000Y-60452000D02*
X131588000Y-60452000D01*
X134180000Y-57860000D02*
X134180000Y-57210000D01*
X131588000Y-60452000D02*
X134180000Y-57860000D01*
X134035051Y-55915051D02*
X121955051Y-55915051D01*
X120229999Y-54189999D02*
X119380000Y-53340000D01*
X134680000Y-57210000D02*
X134680000Y-56560000D01*
X134680000Y-56560000D02*
X134035051Y-55915051D01*
X121955051Y-55915051D02*
X120229999Y-54189999D01*
X122769999Y-54189999D02*
X121920000Y-53340000D01*
X124195041Y-55615041D02*
X122769999Y-54189999D01*
X135180000Y-56560000D02*
X134235041Y-55615041D01*
X135180000Y-57210000D02*
X135180000Y-56560000D01*
X134235041Y-55615041D02*
X124195041Y-55615041D01*
X135680000Y-57210000D02*
X135680000Y-56560000D01*
X125309999Y-54189999D02*
X124460000Y-53340000D01*
X135680000Y-56560000D02*
X134435031Y-55315031D01*
X134435031Y-55315031D02*
X126435031Y-55315031D01*
X126435031Y-55315031D02*
X125309999Y-54189999D01*
X136180000Y-56560000D02*
X134635021Y-55015021D01*
X134635021Y-55015021D02*
X128675021Y-55015021D01*
X136180000Y-57210000D02*
X136180000Y-56560000D01*
X127849999Y-54189999D02*
X127000000Y-53340000D01*
X128675021Y-55015021D02*
X127849999Y-54189999D01*
X130915011Y-54715011D02*
X130389999Y-54189999D01*
X136680000Y-56560000D02*
X134835011Y-54715011D01*
X136680000Y-57210000D02*
X136680000Y-56560000D01*
X134835011Y-54715011D02*
X130915011Y-54715011D01*
X130389999Y-54189999D02*
X129540000Y-53340000D01*
X133155001Y-54415001D02*
X132929999Y-54189999D01*
X132929999Y-54189999D02*
X132080000Y-53340000D01*
X137180000Y-57210000D02*
X137180000Y-56560000D01*
X135035001Y-54415001D02*
X133155001Y-54415001D01*
X137180000Y-56560000D02*
X135035001Y-54415001D01*
X137680000Y-57210000D02*
X137680000Y-56400000D01*
X135469999Y-54189999D02*
X134620000Y-53340000D01*
X137680000Y-56400000D02*
X135469999Y-54189999D01*
X138180000Y-54360000D02*
X137160000Y-53340000D01*
X138180000Y-57210000D02*
X138180000Y-54360000D01*
X138680000Y-54360000D02*
X139700000Y-53340000D01*
X138680000Y-57210000D02*
X138680000Y-54360000D01*
X139180000Y-57210000D02*
X139180000Y-56400000D01*
X141390001Y-54189999D02*
X142240000Y-53340000D01*
X139180000Y-56400000D02*
X141390001Y-54189999D01*
X143930001Y-54189999D02*
X144780000Y-53340000D01*
X143704999Y-54415001D02*
X143930001Y-54189999D01*
X141824999Y-54415001D02*
X143704999Y-54415001D01*
X139680000Y-56560000D02*
X141824999Y-54415001D01*
X139680000Y-57210000D02*
X139680000Y-56560000D01*
X146470001Y-54189999D02*
X147320000Y-53340000D01*
X145944989Y-54715011D02*
X146470001Y-54189999D01*
X142024989Y-54715011D02*
X145944989Y-54715011D01*
X140180000Y-56560000D02*
X142024989Y-54715011D01*
X140180000Y-57210000D02*
X140180000Y-56560000D01*
X149010001Y-54189999D02*
X149860000Y-53340000D01*
X148184979Y-55015021D02*
X149010001Y-54189999D01*
X142224979Y-55015021D02*
X148184979Y-55015021D01*
X140680000Y-56560000D02*
X142224979Y-55015021D01*
X140680000Y-57210000D02*
X140680000Y-56560000D01*
X151550001Y-54189999D02*
X152400000Y-53340000D01*
X150424969Y-55315031D02*
X151550001Y-54189999D01*
X142424969Y-55315031D02*
X150424969Y-55315031D01*
X141180000Y-56560000D02*
X142424969Y-55315031D01*
X141180000Y-57210000D02*
X141180000Y-56560000D01*
X154090001Y-54189999D02*
X154940000Y-53340000D01*
X152664959Y-55615041D02*
X154090001Y-54189999D01*
X142624959Y-55615041D02*
X152664959Y-55615041D01*
X141680000Y-56560000D02*
X142624959Y-55615041D01*
X141680000Y-57210000D02*
X141680000Y-56560000D01*
X156630001Y-54189999D02*
X157480000Y-53340000D01*
X154904949Y-55915051D02*
X156630001Y-54189999D01*
X142824949Y-55915051D02*
X154904949Y-55915051D01*
X142180000Y-56560000D02*
X142824949Y-55915051D01*
X142180000Y-57210000D02*
X142180000Y-56560000D01*
X142680000Y-57860000D02*
X142680000Y-57210000D01*
X145272000Y-60452000D02*
X142680000Y-57860000D01*
X152908000Y-60452000D02*
X145272000Y-60452000D01*
X145126988Y-59806988D02*
X156210000Y-59806988D01*
X143180000Y-57210000D02*
X143180000Y-57860000D01*
X143180000Y-57860000D02*
X145126988Y-59806988D01*
X158692315Y-59181988D02*
X159258000Y-59181988D01*
X145001988Y-59181988D02*
X158692315Y-59181988D01*
X143680000Y-57860000D02*
X145001988Y-59181988D01*
X143680000Y-57210000D02*
X143680000Y-57860000D01*
X144739992Y-58419992D02*
X161994307Y-58419992D01*
X161994307Y-58419992D02*
X162559992Y-58419992D01*
X144180000Y-57860000D02*
X144739992Y-58419992D01*
X144180000Y-57210000D02*
X144180000Y-57860000D01*
X167035001Y-56484999D02*
X144755001Y-56484999D01*
X144755001Y-56484999D02*
X144680000Y-56560000D01*
X170180000Y-53340000D02*
X167035001Y-56484999D01*
X144680000Y-56560000D02*
X144680000Y-57210000D01*
X169850000Y-57210000D02*
X172720000Y-54340000D01*
X172720000Y-54340000D02*
X172720000Y-53340000D01*
X145180000Y-57210000D02*
X169850000Y-57210000D01*
M02*
